<?xml version="1.0" encoding="utf-8" standalone="no"?>
<!DOCTYPE svg PUBLIC "-//W3C//DTD SVG 1.1//EN"
  "http://www.w3.org/Graphics/SVG/1.1/DTD/svg11.dtd">
<!-- Created with matplotlib (http://matplotlib.org/) -->
<svg height="345.6pt" version="1.1" viewBox="0 0 460.8 345.6" width="460.8pt" xmlns="http://www.w3.org/2000/svg" xmlns:xlink="http://www.w3.org/1999/xlink">
 <defs>
  <style type="text/css">
*{stroke-linecap:butt;stroke-linejoin:round;}
  </style>
 </defs>
 <g id="figure_1">
  <g id="patch_1">
   <path d="M 0 345.6 
L 460.8 345.6 
L 460.8 0 
L 0 0 
z
" style="fill:#ffffff;"/>
  </g>
  <g id="axes_1">
   <g id="patch_2">
    <path d="M 57.6 307.584 
L 414.72 307.584 
L 414.72 41.472 
L 57.6 41.472 
z
" style="fill:#ffffff;"/>
   </g>
   <g id="matplotlib.axis_1">
    <g id="xtick_1">
     <g id="line2d_1">
      <defs>
       <path d="M 0 0 
L 0 3.5 
" id="m3de0a2c334" style="stroke:#000000;stroke-width:0.8;"/>
      </defs>
      <g>
       <use style="stroke:#000000;stroke-width:0.8;" x="73.832727" xlink:href="#m3de0a2c334" y="307.584"/>
      </g>
     </g>
     <g id="text_1">
      <!-- 0.0 -->
      <defs>
       <path d="M 31.78125 66.40625 
Q 24.171875 66.40625 20.328125 58.90625 
Q 16.5 51.421875 16.5 36.375 
Q 16.5 21.390625 20.328125 13.890625 
Q 24.171875 6.390625 31.78125 6.390625 
Q 39.453125 6.390625 43.28125 13.890625 
Q 47.125 21.390625 47.125 36.375 
Q 47.125 51.421875 43.28125 58.90625 
Q 39.453125 66.40625 31.78125 66.40625 
z
M 31.78125 74.21875 
Q 44.046875 74.21875 50.515625 64.515625 
Q 56.984375 54.828125 56.984375 36.375 
Q 56.984375 17.96875 50.515625 8.265625 
Q 44.046875 -1.421875 31.78125 -1.421875 
Q 19.53125 -1.421875 13.0625 8.265625 
Q 6.59375 17.96875 6.59375 36.375 
Q 6.59375 54.828125 13.0625 64.515625 
Q 19.53125 74.21875 31.78125 74.21875 
z
" id="DejaVuSans-30"/>
       <path d="M 10.6875 12.40625 
L 21 12.40625 
L 21 0 
L 10.6875 0 
z
" id="DejaVuSans-2e"/>
      </defs>
      <g transform="translate(65.881165 322.182437)scale(0.1 -0.1)">
       <use xlink:href="#DejaVuSans-30"/>
       <use x="63.623047" xlink:href="#DejaVuSans-2e"/>
       <use x="95.410156" xlink:href="#DejaVuSans-30"/>
      </g>
     </g>
    </g>
    <g id="xtick_2">
     <g id="line2d_2">
      <g>
       <use style="stroke:#000000;stroke-width:0.8;" x="138.763636" xlink:href="#m3de0a2c334" y="307.584"/>
      </g>
     </g>
     <g id="text_2">
      <!-- 0.2 -->
      <defs>
       <path d="M 19.1875 8.296875 
L 53.609375 8.296875 
L 53.609375 0 
L 7.328125 0 
L 7.328125 8.296875 
Q 12.9375 14.109375 22.625 23.890625 
Q 32.328125 33.6875 34.8125 36.53125 
Q 39.546875 41.84375 41.421875 45.53125 
Q 43.3125 49.21875 43.3125 52.78125 
Q 43.3125 58.59375 39.234375 62.25 
Q 35.15625 65.921875 28.609375 65.921875 
Q 23.96875 65.921875 18.8125 64.3125 
Q 13.671875 62.703125 7.8125 59.421875 
L 7.8125 69.390625 
Q 13.765625 71.78125 18.9375 73 
Q 24.125 74.21875 28.421875 74.21875 
Q 39.75 74.21875 46.484375 68.546875 
Q 53.21875 62.890625 53.21875 53.421875 
Q 53.21875 48.921875 51.53125 44.890625 
Q 49.859375 40.875 45.40625 35.40625 
Q 44.1875 33.984375 37.640625 27.21875 
Q 31.109375 20.453125 19.1875 8.296875 
z
" id="DejaVuSans-32"/>
      </defs>
      <g transform="translate(130.812074 322.182437)scale(0.1 -0.1)">
       <use xlink:href="#DejaVuSans-30"/>
       <use x="63.623047" xlink:href="#DejaVuSans-2e"/>
       <use x="95.410156" xlink:href="#DejaVuSans-32"/>
      </g>
     </g>
    </g>
    <g id="xtick_3">
     <g id="line2d_3">
      <g>
       <use style="stroke:#000000;stroke-width:0.8;" x="203.694545" xlink:href="#m3de0a2c334" y="307.584"/>
      </g>
     </g>
     <g id="text_3">
      <!-- 0.4 -->
      <defs>
       <path d="M 37.796875 64.3125 
L 12.890625 25.390625 
L 37.796875 25.390625 
z
M 35.203125 72.90625 
L 47.609375 72.90625 
L 47.609375 25.390625 
L 58.015625 25.390625 
L 58.015625 17.1875 
L 47.609375 17.1875 
L 47.609375 0 
L 37.796875 0 
L 37.796875 17.1875 
L 4.890625 17.1875 
L 4.890625 26.703125 
z
" id="DejaVuSans-34"/>
      </defs>
      <g transform="translate(195.742983 322.182437)scale(0.1 -0.1)">
       <use xlink:href="#DejaVuSans-30"/>
       <use x="63.623047" xlink:href="#DejaVuSans-2e"/>
       <use x="95.410156" xlink:href="#DejaVuSans-34"/>
      </g>
     </g>
    </g>
    <g id="xtick_4">
     <g id="line2d_4">
      <g>
       <use style="stroke:#000000;stroke-width:0.8;" x="268.625455" xlink:href="#m3de0a2c334" y="307.584"/>
      </g>
     </g>
     <g id="text_4">
      <!-- 0.6 -->
      <defs>
       <path d="M 33.015625 40.375 
Q 26.375 40.375 22.484375 35.828125 
Q 18.609375 31.296875 18.609375 23.390625 
Q 18.609375 15.53125 22.484375 10.953125 
Q 26.375 6.390625 33.015625 6.390625 
Q 39.65625 6.390625 43.53125 10.953125 
Q 47.40625 15.53125 47.40625 23.390625 
Q 47.40625 31.296875 43.53125 35.828125 
Q 39.65625 40.375 33.015625 40.375 
z
M 52.59375 71.296875 
L 52.59375 62.3125 
Q 48.875 64.0625 45.09375 64.984375 
Q 41.3125 65.921875 37.59375 65.921875 
Q 27.828125 65.921875 22.671875 59.328125 
Q 17.53125 52.734375 16.796875 39.40625 
Q 19.671875 43.65625 24.015625 45.921875 
Q 28.375 48.1875 33.59375 48.1875 
Q 44.578125 48.1875 50.953125 41.515625 
Q 57.328125 34.859375 57.328125 23.390625 
Q 57.328125 12.15625 50.6875 5.359375 
Q 44.046875 -1.421875 33.015625 -1.421875 
Q 20.359375 -1.421875 13.671875 8.265625 
Q 6.984375 17.96875 6.984375 36.375 
Q 6.984375 53.65625 15.1875 63.9375 
Q 23.390625 74.21875 37.203125 74.21875 
Q 40.921875 74.21875 44.703125 73.484375 
Q 48.484375 72.75 52.59375 71.296875 
z
" id="DejaVuSans-36"/>
      </defs>
      <g transform="translate(260.673892 322.182437)scale(0.1 -0.1)">
       <use xlink:href="#DejaVuSans-30"/>
       <use x="63.623047" xlink:href="#DejaVuSans-2e"/>
       <use x="95.410156" xlink:href="#DejaVuSans-36"/>
      </g>
     </g>
    </g>
    <g id="xtick_5">
     <g id="line2d_5">
      <g>
       <use style="stroke:#000000;stroke-width:0.8;" x="333.556364" xlink:href="#m3de0a2c334" y="307.584"/>
      </g>
     </g>
     <g id="text_5">
      <!-- 0.8 -->
      <defs>
       <path d="M 31.78125 34.625 
Q 24.75 34.625 20.71875 30.859375 
Q 16.703125 27.09375 16.703125 20.515625 
Q 16.703125 13.921875 20.71875 10.15625 
Q 24.75 6.390625 31.78125 6.390625 
Q 38.8125 6.390625 42.859375 10.171875 
Q 46.921875 13.96875 46.921875 20.515625 
Q 46.921875 27.09375 42.890625 30.859375 
Q 38.875 34.625 31.78125 34.625 
z
M 21.921875 38.8125 
Q 15.578125 40.375 12.03125 44.71875 
Q 8.5 49.078125 8.5 55.328125 
Q 8.5 64.0625 14.71875 69.140625 
Q 20.953125 74.21875 31.78125 74.21875 
Q 42.671875 74.21875 48.875 69.140625 
Q 55.078125 64.0625 55.078125 55.328125 
Q 55.078125 49.078125 51.53125 44.71875 
Q 48 40.375 41.703125 38.8125 
Q 48.828125 37.15625 52.796875 32.3125 
Q 56.78125 27.484375 56.78125 20.515625 
Q 56.78125 9.90625 50.3125 4.234375 
Q 43.84375 -1.421875 31.78125 -1.421875 
Q 19.734375 -1.421875 13.25 4.234375 
Q 6.78125 9.90625 6.78125 20.515625 
Q 6.78125 27.484375 10.78125 32.3125 
Q 14.796875 37.15625 21.921875 38.8125 
z
M 18.3125 54.390625 
Q 18.3125 48.734375 21.84375 45.5625 
Q 25.390625 42.390625 31.78125 42.390625 
Q 38.140625 42.390625 41.71875 45.5625 
Q 45.3125 48.734375 45.3125 54.390625 
Q 45.3125 60.0625 41.71875 63.234375 
Q 38.140625 66.40625 31.78125 66.40625 
Q 25.390625 66.40625 21.84375 63.234375 
Q 18.3125 60.0625 18.3125 54.390625 
z
" id="DejaVuSans-38"/>
      </defs>
      <g transform="translate(325.604801 322.182437)scale(0.1 -0.1)">
       <use xlink:href="#DejaVuSans-30"/>
       <use x="63.623047" xlink:href="#DejaVuSans-2e"/>
       <use x="95.410156" xlink:href="#DejaVuSans-38"/>
      </g>
     </g>
    </g>
    <g id="xtick_6">
     <g id="line2d_6">
      <g>
       <use style="stroke:#000000;stroke-width:0.8;" x="398.487273" xlink:href="#m3de0a2c334" y="307.584"/>
      </g>
     </g>
     <g id="text_6">
      <!-- 1.0 -->
      <defs>
       <path d="M 12.40625 8.296875 
L 28.515625 8.296875 
L 28.515625 63.921875 
L 10.984375 60.40625 
L 10.984375 69.390625 
L 28.421875 72.90625 
L 38.28125 72.90625 
L 38.28125 8.296875 
L 54.390625 8.296875 
L 54.390625 0 
L 12.40625 0 
z
" id="DejaVuSans-31"/>
      </defs>
      <g transform="translate(390.53571 322.182437)scale(0.1 -0.1)">
       <use xlink:href="#DejaVuSans-31"/>
       <use x="63.623047" xlink:href="#DejaVuSans-2e"/>
       <use x="95.410156" xlink:href="#DejaVuSans-30"/>
      </g>
     </g>
    </g>
    <g id="text_7">
     <!-- false positive rate -->
     <defs>
      <path d="M 37.109375 75.984375 
L 37.109375 68.5 
L 28.515625 68.5 
Q 23.6875 68.5 21.796875 66.546875 
Q 19.921875 64.59375 19.921875 59.515625 
L 19.921875 54.6875 
L 34.71875 54.6875 
L 34.71875 47.703125 
L 19.921875 47.703125 
L 19.921875 0 
L 10.890625 0 
L 10.890625 47.703125 
L 2.296875 47.703125 
L 2.296875 54.6875 
L 10.890625 54.6875 
L 10.890625 58.5 
Q 10.890625 67.625 15.140625 71.796875 
Q 19.390625 75.984375 28.609375 75.984375 
z
" id="DejaVuSans-66"/>
      <path d="M 34.28125 27.484375 
Q 23.390625 27.484375 19.1875 25 
Q 14.984375 22.515625 14.984375 16.5 
Q 14.984375 11.71875 18.140625 8.90625 
Q 21.296875 6.109375 26.703125 6.109375 
Q 34.1875 6.109375 38.703125 11.40625 
Q 43.21875 16.703125 43.21875 25.484375 
L 43.21875 27.484375 
z
M 52.203125 31.203125 
L 52.203125 0 
L 43.21875 0 
L 43.21875 8.296875 
Q 40.140625 3.328125 35.546875 0.953125 
Q 30.953125 -1.421875 24.3125 -1.421875 
Q 15.921875 -1.421875 10.953125 3.296875 
Q 6 8.015625 6 15.921875 
Q 6 25.140625 12.171875 29.828125 
Q 18.359375 34.515625 30.609375 34.515625 
L 43.21875 34.515625 
L 43.21875 35.40625 
Q 43.21875 41.609375 39.140625 45 
Q 35.0625 48.390625 27.6875 48.390625 
Q 23 48.390625 18.546875 47.265625 
Q 14.109375 46.140625 10.015625 43.890625 
L 10.015625 52.203125 
Q 14.9375 54.109375 19.578125 55.046875 
Q 24.21875 56 28.609375 56 
Q 40.484375 56 46.34375 49.84375 
Q 52.203125 43.703125 52.203125 31.203125 
z
" id="DejaVuSans-61"/>
      <path d="M 9.421875 75.984375 
L 18.40625 75.984375 
L 18.40625 0 
L 9.421875 0 
z
" id="DejaVuSans-6c"/>
      <path d="M 44.28125 53.078125 
L 44.28125 44.578125 
Q 40.484375 46.53125 36.375 47.5 
Q 32.28125 48.484375 27.875 48.484375 
Q 21.1875 48.484375 17.84375 46.4375 
Q 14.5 44.390625 14.5 40.28125 
Q 14.5 37.15625 16.890625 35.375 
Q 19.28125 33.59375 26.515625 31.984375 
L 29.59375 31.296875 
Q 39.15625 29.25 43.1875 25.515625 
Q 47.21875 21.78125 47.21875 15.09375 
Q 47.21875 7.46875 41.1875 3.015625 
Q 35.15625 -1.421875 24.609375 -1.421875 
Q 20.21875 -1.421875 15.453125 -0.5625 
Q 10.6875 0.296875 5.421875 2 
L 5.421875 11.28125 
Q 10.40625 8.6875 15.234375 7.390625 
Q 20.0625 6.109375 24.8125 6.109375 
Q 31.15625 6.109375 34.5625 8.28125 
Q 37.984375 10.453125 37.984375 14.40625 
Q 37.984375 18.0625 35.515625 20.015625 
Q 33.0625 21.96875 24.703125 23.78125 
L 21.578125 24.515625 
Q 13.234375 26.265625 9.515625 29.90625 
Q 5.8125 33.546875 5.8125 39.890625 
Q 5.8125 47.609375 11.28125 51.796875 
Q 16.75 56 26.8125 56 
Q 31.78125 56 36.171875 55.265625 
Q 40.578125 54.546875 44.28125 53.078125 
z
" id="DejaVuSans-73"/>
      <path d="M 56.203125 29.59375 
L 56.203125 25.203125 
L 14.890625 25.203125 
Q 15.484375 15.921875 20.484375 11.0625 
Q 25.484375 6.203125 34.421875 6.203125 
Q 39.59375 6.203125 44.453125 7.46875 
Q 49.3125 8.734375 54.109375 11.28125 
L 54.109375 2.78125 
Q 49.265625 0.734375 44.1875 -0.34375 
Q 39.109375 -1.421875 33.890625 -1.421875 
Q 20.796875 -1.421875 13.15625 6.1875 
Q 5.515625 13.8125 5.515625 26.8125 
Q 5.515625 40.234375 12.765625 48.109375 
Q 20.015625 56 32.328125 56 
Q 43.359375 56 49.78125 48.890625 
Q 56.203125 41.796875 56.203125 29.59375 
z
M 47.21875 32.234375 
Q 47.125 39.59375 43.09375 43.984375 
Q 39.0625 48.390625 32.421875 48.390625 
Q 24.90625 48.390625 20.390625 44.140625 
Q 15.875 39.890625 15.1875 32.171875 
z
" id="DejaVuSans-65"/>
      <path id="DejaVuSans-20"/>
      <path d="M 18.109375 8.203125 
L 18.109375 -20.796875 
L 9.078125 -20.796875 
L 9.078125 54.6875 
L 18.109375 54.6875 
L 18.109375 46.390625 
Q 20.953125 51.265625 25.265625 53.625 
Q 29.59375 56 35.59375 56 
Q 45.5625 56 51.78125 48.09375 
Q 58.015625 40.1875 58.015625 27.296875 
Q 58.015625 14.40625 51.78125 6.484375 
Q 45.5625 -1.421875 35.59375 -1.421875 
Q 29.59375 -1.421875 25.265625 0.953125 
Q 20.953125 3.328125 18.109375 8.203125 
z
M 48.6875 27.296875 
Q 48.6875 37.203125 44.609375 42.84375 
Q 40.53125 48.484375 33.40625 48.484375 
Q 26.265625 48.484375 22.1875 42.84375 
Q 18.109375 37.203125 18.109375 27.296875 
Q 18.109375 17.390625 22.1875 11.75 
Q 26.265625 6.109375 33.40625 6.109375 
Q 40.53125 6.109375 44.609375 11.75 
Q 48.6875 17.390625 48.6875 27.296875 
z
" id="DejaVuSans-70"/>
      <path d="M 30.609375 48.390625 
Q 23.390625 48.390625 19.1875 42.75 
Q 14.984375 37.109375 14.984375 27.296875 
Q 14.984375 17.484375 19.15625 11.84375 
Q 23.34375 6.203125 30.609375 6.203125 
Q 37.796875 6.203125 41.984375 11.859375 
Q 46.1875 17.53125 46.1875 27.296875 
Q 46.1875 37.015625 41.984375 42.703125 
Q 37.796875 48.390625 30.609375 48.390625 
z
M 30.609375 56 
Q 42.328125 56 49.015625 48.375 
Q 55.71875 40.765625 55.71875 27.296875 
Q 55.71875 13.875 49.015625 6.21875 
Q 42.328125 -1.421875 30.609375 -1.421875 
Q 18.84375 -1.421875 12.171875 6.21875 
Q 5.515625 13.875 5.515625 27.296875 
Q 5.515625 40.765625 12.171875 48.375 
Q 18.84375 56 30.609375 56 
z
" id="DejaVuSans-6f"/>
      <path d="M 9.421875 54.6875 
L 18.40625 54.6875 
L 18.40625 0 
L 9.421875 0 
z
M 9.421875 75.984375 
L 18.40625 75.984375 
L 18.40625 64.59375 
L 9.421875 64.59375 
z
" id="DejaVuSans-69"/>
      <path d="M 18.3125 70.21875 
L 18.3125 54.6875 
L 36.8125 54.6875 
L 36.8125 47.703125 
L 18.3125 47.703125 
L 18.3125 18.015625 
Q 18.3125 11.328125 20.140625 9.421875 
Q 21.96875 7.515625 27.59375 7.515625 
L 36.8125 7.515625 
L 36.8125 0 
L 27.59375 0 
Q 17.1875 0 13.234375 3.875 
Q 9.28125 7.765625 9.28125 18.015625 
L 9.28125 47.703125 
L 2.6875 47.703125 
L 2.6875 54.6875 
L 9.28125 54.6875 
L 9.28125 70.21875 
z
" id="DejaVuSans-74"/>
      <path d="M 2.984375 54.6875 
L 12.5 54.6875 
L 29.59375 8.796875 
L 46.6875 54.6875 
L 56.203125 54.6875 
L 35.6875 0 
L 23.484375 0 
z
" id="DejaVuSans-76"/>
      <path d="M 41.109375 46.296875 
Q 39.59375 47.171875 37.8125 47.578125 
Q 36.03125 48 33.890625 48 
Q 26.265625 48 22.1875 43.046875 
Q 18.109375 38.09375 18.109375 28.8125 
L 18.109375 0 
L 9.078125 0 
L 9.078125 54.6875 
L 18.109375 54.6875 
L 18.109375 46.1875 
Q 20.953125 51.171875 25.484375 53.578125 
Q 30.03125 56 36.53125 56 
Q 37.453125 56 38.578125 55.875 
Q 39.703125 55.765625 41.0625 55.515625 
z
" id="DejaVuSans-72"/>
     </defs>
     <g transform="translate(191.318594 335.860562)scale(0.1 -0.1)">
      <use xlink:href="#DejaVuSans-66"/>
      <use x="35.205078" xlink:href="#DejaVuSans-61"/>
      <use x="96.484375" xlink:href="#DejaVuSans-6c"/>
      <use x="124.267578" xlink:href="#DejaVuSans-73"/>
      <use x="176.367188" xlink:href="#DejaVuSans-65"/>
      <use x="237.890625" xlink:href="#DejaVuSans-20"/>
      <use x="269.677734" xlink:href="#DejaVuSans-70"/>
      <use x="333.154297" xlink:href="#DejaVuSans-6f"/>
      <use x="394.335938" xlink:href="#DejaVuSans-73"/>
      <use x="446.435547" xlink:href="#DejaVuSans-69"/>
      <use x="474.21875" xlink:href="#DejaVuSans-74"/>
      <use x="513.427734" xlink:href="#DejaVuSans-69"/>
      <use x="541.210938" xlink:href="#DejaVuSans-76"/>
      <use x="600.390625" xlink:href="#DejaVuSans-65"/>
      <use x="661.914062" xlink:href="#DejaVuSans-20"/>
      <use x="693.701172" xlink:href="#DejaVuSans-72"/>
      <use x="734.814453" xlink:href="#DejaVuSans-61"/>
      <use x="796.09375" xlink:href="#DejaVuSans-74"/>
      <use x="835.302734" xlink:href="#DejaVuSans-65"/>
     </g>
    </g>
   </g>
   <g id="matplotlib.axis_2">
    <g id="ytick_1">
     <g id="line2d_7">
      <defs>
       <path d="M 0 0 
L -3.5 0 
" id="ma9acfb91fd" style="stroke:#000000;stroke-width:0.8;"/>
      </defs>
      <g>
       <use style="stroke:#000000;stroke-width:0.8;" x="57.6" xlink:href="#ma9acfb91fd" y="296.064"/>
      </g>
     </g>
     <g id="text_8">
      <!-- 0.0 -->
      <g transform="translate(34.696875 299.863219)scale(0.1 -0.1)">
       <use xlink:href="#DejaVuSans-30"/>
       <use x="63.623047" xlink:href="#DejaVuSans-2e"/>
       <use x="95.410156" xlink:href="#DejaVuSans-30"/>
      </g>
     </g>
    </g>
    <g id="ytick_2">
     <g id="line2d_8">
      <g>
       <use style="stroke:#000000;stroke-width:0.8;" x="57.6" xlink:href="#ma9acfb91fd" y="247.5648"/>
      </g>
     </g>
     <g id="text_9">
      <!-- 0.2 -->
      <g transform="translate(34.696875 251.364019)scale(0.1 -0.1)">
       <use xlink:href="#DejaVuSans-30"/>
       <use x="63.623047" xlink:href="#DejaVuSans-2e"/>
       <use x="95.410156" xlink:href="#DejaVuSans-32"/>
      </g>
     </g>
    </g>
    <g id="ytick_3">
     <g id="line2d_9">
      <g>
       <use style="stroke:#000000;stroke-width:0.8;" x="57.6" xlink:href="#ma9acfb91fd" y="199.0656"/>
      </g>
     </g>
     <g id="text_10">
      <!-- 0.4 -->
      <g transform="translate(34.696875 202.864819)scale(0.1 -0.1)">
       <use xlink:href="#DejaVuSans-30"/>
       <use x="63.623047" xlink:href="#DejaVuSans-2e"/>
       <use x="95.410156" xlink:href="#DejaVuSans-34"/>
      </g>
     </g>
    </g>
    <g id="ytick_4">
     <g id="line2d_10">
      <g>
       <use style="stroke:#000000;stroke-width:0.8;" x="57.6" xlink:href="#ma9acfb91fd" y="150.5664"/>
      </g>
     </g>
     <g id="text_11">
      <!-- 0.6 -->
      <g transform="translate(34.696875 154.365619)scale(0.1 -0.1)">
       <use xlink:href="#DejaVuSans-30"/>
       <use x="63.623047" xlink:href="#DejaVuSans-2e"/>
       <use x="95.410156" xlink:href="#DejaVuSans-36"/>
      </g>
     </g>
    </g>
    <g id="ytick_5">
     <g id="line2d_11">
      <g>
       <use style="stroke:#000000;stroke-width:0.8;" x="57.6" xlink:href="#ma9acfb91fd" y="102.0672"/>
      </g>
     </g>
     <g id="text_12">
      <!-- 0.8 -->
      <g transform="translate(34.696875 105.866419)scale(0.1 -0.1)">
       <use xlink:href="#DejaVuSans-30"/>
       <use x="63.623047" xlink:href="#DejaVuSans-2e"/>
       <use x="95.410156" xlink:href="#DejaVuSans-38"/>
      </g>
     </g>
    </g>
    <g id="ytick_6">
     <g id="line2d_12">
      <g>
       <use style="stroke:#000000;stroke-width:0.8;" x="57.6" xlink:href="#ma9acfb91fd" y="53.568"/>
      </g>
     </g>
     <g id="text_13">
      <!-- 1.0 -->
      <g transform="translate(34.696875 57.367219)scale(0.1 -0.1)">
       <use xlink:href="#DejaVuSans-31"/>
       <use x="63.623047" xlink:href="#DejaVuSans-2e"/>
       <use x="95.410156" xlink:href="#DejaVuSans-30"/>
      </g>
     </g>
    </g>
    <g id="text_14">
     <!-- true positive rate -->
     <defs>
      <path d="M 8.5 21.578125 
L 8.5 54.6875 
L 17.484375 54.6875 
L 17.484375 21.921875 
Q 17.484375 14.15625 20.5 10.265625 
Q 23.53125 6.390625 29.59375 6.390625 
Q 36.859375 6.390625 41.078125 11.03125 
Q 45.3125 15.671875 45.3125 23.6875 
L 45.3125 54.6875 
L 54.296875 54.6875 
L 54.296875 0 
L 45.3125 0 
L 45.3125 8.40625 
Q 42.046875 3.421875 37.71875 1 
Q 33.40625 -1.421875 27.6875 -1.421875 
Q 18.265625 -1.421875 13.375 4.4375 
Q 8.5 10.296875 8.5 21.578125 
z
M 31.109375 56 
z
" id="DejaVuSans-75"/>
     </defs>
     <g transform="translate(28.617187 217.735813)rotate(-90)scale(0.1 -0.1)">
      <use xlink:href="#DejaVuSans-74"/>
      <use x="39.208984" xlink:href="#DejaVuSans-72"/>
      <use x="80.322266" xlink:href="#DejaVuSans-75"/>
      <use x="143.701172" xlink:href="#DejaVuSans-65"/>
      <use x="205.224609" xlink:href="#DejaVuSans-20"/>
      <use x="237.011719" xlink:href="#DejaVuSans-70"/>
      <use x="300.488281" xlink:href="#DejaVuSans-6f"/>
      <use x="361.669922" xlink:href="#DejaVuSans-73"/>
      <use x="413.769531" xlink:href="#DejaVuSans-69"/>
      <use x="441.552734" xlink:href="#DejaVuSans-74"/>
      <use x="480.761719" xlink:href="#DejaVuSans-69"/>
      <use x="508.544922" xlink:href="#DejaVuSans-76"/>
      <use x="567.724609" xlink:href="#DejaVuSans-65"/>
      <use x="629.248047" xlink:href="#DejaVuSans-20"/>
      <use x="661.035156" xlink:href="#DejaVuSans-72"/>
      <use x="702.148438" xlink:href="#DejaVuSans-61"/>
      <use x="763.427734" xlink:href="#DejaVuSans-74"/>
      <use x="802.636719" xlink:href="#DejaVuSans-65"/>
     </g>
    </g>
   </g>
   <g id="line2d_13">
    <path clip-path="url(#p653452c0b6)" d="M 73.832727 295.424169 
L 73.832727 233.360549 
L 74.689336 233.360549 
L 74.689336 203.288485 
L 75.545944 203.288485 
L 75.545944 199.449499 
L 76.402552 199.449499 
L 76.402552 180.894396 
L 77.25916 180.894396 
L 77.25916 178.335071 
L 78.115769 178.335071 
L 78.115769 176.415578 
L 78.972377 176.415578 
L 78.972377 175.775747 
L 79.828985 175.775747 
L 79.828985 172.576591 
L 80.685594 172.576591 
L 80.685594 167.457942 
L 81.542202 167.457942 
L 81.542202 165.538449 
L 82.39881 165.538449 
L 82.39881 161.059631 
L 83.255419 161.059631 
L 83.255419 154.661319 
L 84.112027 154.661319 
L 84.112027 152.101995 
L 84.968635 152.101995 
L 84.968635 150.182501 
L 86.681852 150.182501 
L 86.681852 141.224865 
L 87.53846 141.224865 
L 87.53846 136.746047 
L 88.395068 136.746047 
L 88.395068 130.347736 
L 90.964893 130.347736 
L 90.964893 129.707905 
L 95.247935 129.707905 
L 95.247935 115.63162 
L 96.104543 115.63162 
L 96.104543 114.991789 
L 96.961151 114.991789 
L 96.961151 113.072296 
L 97.81776 113.072296 
L 97.81776 112.432464 
L 101.244193 112.432464 
L 101.244193 111.792633 
L 102.100801 111.792633 
L 102.100801 110.512971 
L 102.957409 110.512971 
L 102.957409 104.754491 
L 106.383843 104.754491 
L 106.383843 103.474828 
L 108.953668 103.474828 
L 108.953668 102.834997 
L 109.810276 102.834997 
L 109.810276 102.195166 
L 110.666884 102.195166 
L 110.666884 101.555335 
L 111.523492 101.555335 
L 111.523492 100.275673 
L 112.380101 100.275673 
L 112.380101 99.635842 
L 113.236709 99.635842 
L 113.236709 98.996011 
L 114.949926 98.996011 
L 114.949926 98.356179 
L 115.806534 98.356179 
L 115.806534 97.716348 
L 118.376359 97.716348 
L 118.376359 97.076517 
L 119.232967 97.076517 
L 119.232967 96.436686 
L 120.089575 96.436686 
L 120.089575 95.157024 
L 120.946184 95.157024 
L 120.946184 93.877361 
L 123.516009 93.877361 
L 123.516009 93.23753 
L 124.372617 93.23753 
L 124.372617 91.957868 
L 125.229225 91.957868 
L 125.229225 91.318037 
L 126.942442 91.318037 
L 126.942442 90.678206 
L 127.79905 90.678206 
L 127.79905 90.038375 
L 129.512267 90.038375 
L 129.512267 88.758712 
L 131.225483 88.758712 
L 131.225483 86.839219 
L 132.082092 86.839219 
L 132.082092 84.919726 
L 132.9387 84.919726 
L 132.9387 83.640063 
L 133.795308 83.640063 
L 133.795308 82.360401 
L 134.651917 82.360401 
L 134.651917 81.72057 
L 137.221741 81.72057 
L 137.221741 80.440908 
L 141.504783 80.440908 
L 141.504783 79.801077 
L 143.218 79.801077 
L 143.218 79.161245 
L 144.074608 79.161245 
L 144.074608 78.521414 
L 144.931216 78.521414 
L 144.931216 77.241752 
L 146.644433 77.241752 
L 146.644433 75.96209 
L 147.501041 75.96209 
L 147.501041 75.322259 
L 148.357649 75.322259 
L 148.357649 74.682427 
L 150.070866 74.682427 
L 150.070866 72.762934 
L 151.784083 72.762934 
L 151.784083 72.123103 
L 155.210516 72.123103 
L 155.210516 71.483272 
L 156.067124 71.483272 
L 156.067124 70.843441 
L 157.780341 70.843441 
L 157.780341 70.203609 
L 158.636949 70.203609 
L 158.636949 69.563778 
L 168.05964 69.563778 
L 168.05964 68.923947 
L 168.916249 68.923947 
L 168.916249 68.284116 
L 171.486073 68.284116 
L 171.486073 67.644285 
L 180.052156 67.644285 
L 180.052156 67.004454 
L 186.905023 67.004454 
L 186.905023 66.364623 
L 198.040931 66.364623 
L 198.040931 65.724792 
L 199.754147 65.724792 
L 199.754147 65.08496 
L 204.893797 65.08496 
L 204.893797 64.445129 
L 205.750405 64.445129 
L 205.750405 63.165467 
L 208.32023 63.165467 
L 208.32023 62.525636 
L 210.033447 62.525636 
L 210.033447 61.885805 
L 230.592046 61.885805 
L 230.592046 61.245974 
L 241.727954 61.245974 
L 241.727954 59.966311 
L 243.441171 59.966311 
L 243.441171 59.32648 
L 246.867604 59.32648 
L 246.867604 58.686649 
L 273.422461 58.686649 
L 273.422461 58.046818 
L 275.992286 58.046818 
L 275.992286 57.406987 
L 282.845152 57.406987 
L 282.845152 56.767156 
L 292.267844 56.767156 
L 292.267844 56.127325 
L 299.12071 56.127325 
L 299.12071 54.847662 
L 310.256618 54.847662 
L 310.256618 54.207831 
L 319.679309 54.207831 
L 319.679309 53.568 
L 398.487273 53.568 
L 398.487273 53.568 
" style="fill:none;stroke:#1f77b4;stroke-linecap:square;stroke-width:1.5;"/>
   </g>
   <g id="line2d_14">
    <path clip-path="url(#p653452c0b6)" d="M 73.832727 295.388524 
L 73.832727 252.158039 
L 74.737057 252.158039 
L 74.737057 227.165415 
L 75.641388 227.165415 
L 75.641388 221.086128 
L 76.545718 221.086128 
L 76.545718 202.172791 
L 77.450048 202.172791 
L 77.450048 196.093504 
L 78.354378 196.093504 
L 78.354378 177.180167 
L 79.258709 177.180167 
L 79.258709 174.478262 
L 80.163039 174.478262 
L 80.163039 164.346117 
L 81.067369 164.346117 
L 81.067369 151.512067 
L 81.971699 151.512067 
L 81.971699 150.836591 
L 85.58902 150.836591 
L 85.58902 149.485638 
L 86.49335 149.485638 
L 86.49335 148.134685 
L 87.39768 148.134685 
L 87.39768 144.757304 
L 88.302011 144.757304 
L 88.302011 139.353493 
L 89.206341 139.353493 
L 89.206341 138.678017 
L 90.110671 138.678017 
L 90.110671 138.00254 
L 91.015001 138.00254 
L 91.015001 137.327064 
L 91.919331 137.327064 
L 91.919331 135.976111 
L 92.823662 135.976111 
L 92.823662 135.300635 
L 93.727992 135.300635 
L 93.727992 129.896825 
L 94.632322 129.896825 
L 94.632322 126.519443 
L 95.536652 126.519443 
L 95.536652 123.142061 
L 96.440983 123.142061 
L 96.440983 120.440156 
L 97.345313 120.440156 
L 97.345313 119.76468 
L 98.249643 119.76468 
L 98.249643 117.738251 
L 99.153973 117.738251 
L 99.153973 115.036345 
L 100.058303 115.036345 
L 100.058303 112.33444 
L 101.866964 112.33444 
L 101.866964 111.658964 
L 102.771294 111.658964 
L 102.771294 110.983487 
L 104.579954 110.983487 
L 104.579954 109.632535 
L 106.388615 109.632535 
L 106.388615 108.281582 
L 107.292945 108.281582 
L 107.292945 106.93063 
L 108.197275 106.93063 
L 108.197275 105.579677 
L 110.005936 105.579677 
L 110.005936 104.904201 
L 111.814596 104.904201 
L 111.814596 104.228724 
L 112.718926 104.228724 
L 112.718926 102.877772 
L 113.623257 102.877772 
L 113.623257 102.202295 
L 114.527587 102.202295 
L 114.527587 98.824914 
L 116.336247 98.824914 
L 116.336247 98.149437 
L 119.049238 98.149437 
L 119.049238 97.473961 
L 126.283879 97.473961 
L 126.283879 96.798485 
L 128.09254 96.798485 
L 128.09254 95.447532 
L 128.99687 95.447532 
L 128.99687 94.772056 
L 130.805531 94.772056 
L 130.805531 94.096579 
L 131.709861 94.096579 
L 131.709861 92.745627 
L 133.518521 92.745627 
L 133.518521 92.07015 
L 135.327182 92.07015 
L 135.327182 91.394674 
L 136.231512 91.394674 
L 136.231512 90.719198 
L 137.135842 90.719198 
L 137.135842 90.043721 
L 138.944502 90.043721 
L 138.944502 89.368245 
L 140.753163 89.368245 
L 140.753163 88.692769 
L 141.657493 88.692769 
L 141.657493 88.017292 
L 143.466153 88.017292 
L 143.466153 87.341816 
L 147.083474 87.341816 
L 147.083474 86.66634 
L 147.987805 86.66634 
L 147.987805 84.639911 
L 149.796465 84.639911 
L 149.796465 83.288958 
L 151.605125 83.288958 
L 151.605125 81.938006 
L 158.839767 81.938006 
L 158.839767 80.587053 
L 162.457088 80.587053 
L 162.457088 79.911577 
L 164.265748 79.911577 
L 164.265748 79.2361 
L 166.074409 79.2361 
L 166.074409 77.209671 
L 166.978739 77.209671 
L 166.978739 76.534195 
L 167.883069 76.534195 
L 167.883069 75.858719 
L 168.787399 75.858719 
L 168.787399 75.183242 
L 169.69173 75.183242 
L 169.69173 73.83229 
L 171.50039 73.83229 
L 171.50039 73.156813 
L 174.213381 73.156813 
L 174.213381 72.481337 
L 178.735032 72.481337 
L 178.735032 70.454908 
L 179.639362 70.454908 
L 179.639362 69.779432 
L 182.352352 69.779432 
L 182.352352 69.103955 
L 183.256683 69.103955 
L 183.256683 68.428479 
L 184.161013 68.428479 
L 184.161013 67.077526 
L 188.682664 67.077526 
L 188.682664 65.726574 
L 192.299985 65.726574 
L 192.299985 65.051097 
L 197.725966 65.051097 
L 197.725966 64.375621 
L 205.864938 64.375621 
L 205.864938 63.700145 
L 212.195249 63.700145 
L 212.195249 63.024669 
L 216.7169 63.024669 
L 216.7169 62.349192 
L 223.047212 62.349192 
L 223.047212 61.673716 
L 229.377523 61.673716 
L 229.377523 60.99824 
L 242.038146 60.99824 
L 242.038146 60.322763 
L 244.751137 60.322763 
L 244.751137 59.647287 
L 252.890109 59.647287 
L 252.890109 58.971811 
L 265.550732 58.971811 
L 265.550732 58.296334 
L 268.263722 58.296334 
L 268.263722 57.620858 
L 271.881043 57.620858 
L 271.881043 56.945382 
L 281.828676 56.945382 
L 281.828676 56.269905 
L 299.01095 56.269905 
L 299.01095 55.594429 
L 300.81961 55.594429 
L 300.81961 54.918953 
L 347.844781 54.918953 
L 347.844781 54.243476 
L 375.879017 54.243476 
L 375.879017 53.568 
L 398.487273 53.568 
L 398.487273 53.568 
" style="fill:none;stroke:#ff7f0e;stroke-linecap:square;stroke-width:1.5;"/>
   </g>
   <g id="line2d_15">
    <path clip-path="url(#p653452c0b6)" d="M 73.832727 295.488 
L 73.832727 232.704 
L 74.603878 232.704 
L 74.603878 229.248 
L 75.375029 229.248 
L 75.375029 218.304 
L 76.14618 218.304 
L 76.14618 212.544 
L 76.917331 212.544 
L 76.917331 208.512 
L 77.688482 208.512 
L 77.688482 202.752 
L 78.459633 202.752 
L 78.459633 196.992 
L 79.230784 196.992 
L 79.230784 195.264 
L 80.001935 195.264 
L 80.001935 187.776 
L 80.773086 187.776 
L 80.773086 185.472 
L 81.544237 185.472 
L 81.544237 180.288 
L 82.315388 180.288 
L 82.315388 173.952 
L 83.086539 173.952 
L 83.086539 158.4 
L 83.857689 158.4 
L 83.857689 156.672 
L 84.62884 156.672 
L 84.62884 149.76 
L 85.399991 149.76 
L 85.399991 142.848 
L 86.171142 142.848 
L 86.171142 142.272 
L 86.942293 142.272 
L 86.942293 131.904 
L 87.713444 131.904 
L 87.713444 130.752 
L 88.484595 130.752 
L 88.484595 127.872 
L 90.026897 127.872 
L 90.026897 126.144 
L 91.569199 126.144 
L 91.569199 124.416 
L 92.34035 124.416 
L 92.34035 120.96 
L 95.424954 120.96 
L 95.424954 119.808 
L 96.196105 119.808 
L 96.196105 117.504 
L 98.509557 117.504 
L 98.509557 114.624 
L 100.051859 114.624 
L 100.051859 114.048 
L 100.82301 114.048 
L 100.82301 112.896 
L 101.594161 112.896 
L 101.594161 112.32 
L 103.136463 112.32 
L 103.136463 111.168 
L 104.678765 111.168 
L 104.678765 110.016 
L 105.449916 110.016 
L 105.449916 107.712 
L 110.076821 107.712 
L 110.076821 107.136 
L 110.847972 107.136 
L 110.847972 104.832 
L 111.619123 104.832 
L 111.619123 102.528 
L 112.390274 102.528 
L 112.390274 100.8 
L 113.161425 100.8 
L 113.161425 100.224 
L 115.474878 100.224 
L 115.474878 99.072 
L 117.01718 99.072 
L 117.01718 98.496 
L 117.788331 98.496 
L 117.788331 97.92 
L 119.330633 97.92 
L 119.330633 96.192 
L 120.872935 96.192 
L 120.872935 94.464 
L 123.957538 94.464 
L 123.957538 93.312 
L 126.270991 93.312 
L 126.270991 92.736 
L 127.042142 92.736 
L 127.042142 89.28 
L 127.813293 89.28 
L 127.813293 88.128 
L 130.126746 88.128 
L 130.126746 87.552 
L 130.897897 87.552 
L 130.897897 86.4 
L 132.440199 86.4 
L 132.440199 85.824 
L 134.753651 85.824 
L 134.753651 85.248 
L 137.838255 85.248 
L 137.838255 84.096 
L 141.69401 84.096 
L 141.69401 81.792 
L 142.465161 81.792 
L 142.465161 81.216 
L 144.007463 81.216 
L 144.007463 80.64 
L 147.863217 80.64 
L 147.863217 80.064 
L 149.405519 80.064 
L 149.405519 79.488 
L 153.261274 79.488 
L 153.261274 78.912 
L 154.032425 78.912 
L 154.032425 78.336 
L 156.345878 78.336 
L 156.345878 77.76 
L 157.88818 77.76 
L 157.88818 77.184 
L 160.972783 77.184 
L 160.972783 76.608 
L 162.515085 76.608 
L 162.515085 76.032 
L 167.141991 76.032 
L 167.141991 75.456 
L 176.395802 75.456 
L 176.395802 74.304 
L 177.938104 74.304 
L 177.938104 73.728 
L 184.107312 73.728 
L 184.107312 73.152 
L 190.276519 73.152 
L 190.276519 72.576 
L 191.04767 72.576 
L 191.04767 71.424 
L 194.903425 71.424 
L 194.903425 70.848 
L 197.216878 70.848 
L 197.216878 70.272 
L 199.53033 70.272 
L 199.53033 69.696 
L 204.928387 69.696 
L 204.928387 69.12 
L 211.097594 69.12 
L 211.097594 68.544 
L 214.182198 68.544 
L 214.182198 67.392 
L 217.266802 67.392 
L 217.266802 66.24 
L 218.037953 66.24 
L 218.037953 65.664 
L 220.351406 65.664 
L 220.351406 65.088 
L 228.834066 65.088 
L 228.834066 64.512 
L 232.689821 64.512 
L 232.689821 63.936 
L 235.774425 63.936 
L 235.774425 63.36 
L 240.40133 63.36 
L 240.40133 62.784 
L 241.172481 62.784 
L 241.172481 61.632 
L 247.341689 61.632 
L 247.341689 61.056 
L 248.11284 61.056 
L 248.11284 60.48 
L 248.88399 60.48 
L 248.88399 59.328 
L 251.197443 59.328 
L 251.197443 58.752 
L 259.680104 58.752 
L 259.680104 58.176 
L 260.451255 58.176 
L 260.451255 57.6 
L 262.764707 57.6 
L 262.764707 57.024 
L 264.307009 57.024 
L 264.307009 56.448 
L 275.874273 56.448 
L 275.874273 55.872 
L 288.983839 55.872 
L 288.983839 55.296 
L 292.068443 55.296 
L 292.068443 54.72 
L 300.551103 54.72 
L 300.551103 54.144 
L 351.447065 54.144 
L 351.447065 53.568 
L 398.487273 53.568 
L 398.487273 53.568 
" style="fill:none;stroke:#2ca02c;stroke-linecap:square;stroke-width:1.5;"/>
   </g>
   <g id="patch_3">
    <path d="M 57.6 307.584 
L 57.6 41.472 
" style="fill:none;stroke:#000000;stroke-linecap:square;stroke-linejoin:miter;stroke-width:0.8;"/>
   </g>
   <g id="patch_4">
    <path d="M 414.72 307.584 
L 414.72 41.472 
" style="fill:none;stroke:#000000;stroke-linecap:square;stroke-linejoin:miter;stroke-width:0.8;"/>
   </g>
   <g id="patch_5">
    <path d="M 57.6 307.584 
L 414.72 307.584 
" style="fill:none;stroke:#000000;stroke-linecap:square;stroke-linejoin:miter;stroke-width:0.8;"/>
   </g>
   <g id="patch_6">
    <path d="M 57.6 41.472 
L 414.72 41.472 
" style="fill:none;stroke:#000000;stroke-linecap:square;stroke-linejoin:miter;stroke-width:0.8;"/>
   </g>
   <g id="legend_1">
    <g id="patch_7">
     <path d="M 339.430938 93.506375 
L 407.72 93.506375 
Q 409.72 93.506375 409.72 91.506375 
L 409.72 48.472 
Q 409.72 46.472 407.72 46.472 
L 339.430938 46.472 
Q 337.430938 46.472 337.430938 48.472 
L 337.430938 91.506375 
Q 337.430938 93.506375 339.430938 93.506375 
z
" style="fill:#ffffff;opacity:0.8;stroke:#cccccc;stroke-linejoin:miter;"/>
    </g>
    <g id="line2d_16">
     <path d="M 341.430938 54.570438 
L 361.430938 54.570438 
" style="fill:none;stroke:#1f77b4;stroke-linecap:square;stroke-width:1.5;"/>
    </g>
    <g id="line2d_17"/>
    <g id="text_15">
     <!-- DSVDD -->
     <defs>
      <path d="M 19.671875 64.796875 
L 19.671875 8.109375 
L 31.59375 8.109375 
Q 46.6875 8.109375 53.6875 14.9375 
Q 60.6875 21.78125 60.6875 36.53125 
Q 60.6875 51.171875 53.6875 57.984375 
Q 46.6875 64.796875 31.59375 64.796875 
z
M 9.8125 72.90625 
L 30.078125 72.90625 
Q 51.265625 72.90625 61.171875 64.09375 
Q 71.09375 55.28125 71.09375 36.53125 
Q 71.09375 17.671875 61.125 8.828125 
Q 51.171875 0 30.078125 0 
L 9.8125 0 
z
" id="DejaVuSans-44"/>
      <path d="M 53.515625 70.515625 
L 53.515625 60.890625 
Q 47.90625 63.578125 42.921875 64.890625 
Q 37.9375 66.21875 33.296875 66.21875 
Q 25.25 66.21875 20.875 63.09375 
Q 16.5 59.96875 16.5 54.203125 
Q 16.5 49.359375 19.40625 46.890625 
Q 22.3125 44.4375 30.421875 42.921875 
L 36.375 41.703125 
Q 47.40625 39.59375 52.65625 34.296875 
Q 57.90625 29 57.90625 20.125 
Q 57.90625 9.515625 50.796875 4.046875 
Q 43.703125 -1.421875 29.984375 -1.421875 
Q 24.8125 -1.421875 18.96875 -0.25 
Q 13.140625 0.921875 6.890625 3.21875 
L 6.890625 13.375 
Q 12.890625 10.015625 18.65625 8.296875 
Q 24.421875 6.59375 29.984375 6.59375 
Q 38.421875 6.59375 43.015625 9.90625 
Q 47.609375 13.234375 47.609375 19.390625 
Q 47.609375 24.75 44.3125 27.78125 
Q 41.015625 30.8125 33.5 32.328125 
L 27.484375 33.5 
Q 16.453125 35.6875 11.515625 40.375 
Q 6.59375 45.0625 6.59375 53.421875 
Q 6.59375 63.09375 13.40625 68.65625 
Q 20.21875 74.21875 32.171875 74.21875 
Q 37.3125 74.21875 42.625 73.28125 
Q 47.953125 72.359375 53.515625 70.515625 
z
" id="DejaVuSans-53"/>
      <path d="M 28.609375 0 
L 0.78125 72.90625 
L 11.078125 72.90625 
L 34.1875 11.53125 
L 57.328125 72.90625 
L 67.578125 72.90625 
L 39.796875 0 
z
" id="DejaVuSans-56"/>
     </defs>
     <g transform="translate(369.430938 58.070438)scale(0.1 -0.1)">
      <use xlink:href="#DejaVuSans-44"/>
      <use x="77.001953" xlink:href="#DejaVuSans-53"/>
      <use x="140.478516" xlink:href="#DejaVuSans-56"/>
      <use x="208.886719" xlink:href="#DejaVuSans-44"/>
      <use x="285.888672" xlink:href="#DejaVuSans-44"/>
     </g>
    </g>
    <g id="line2d_18">
     <path d="M 341.430938 69.248563 
L 361.430938 69.248563 
" style="fill:none;stroke:#ff7f0e;stroke-linecap:square;stroke-width:1.5;"/>
    </g>
    <g id="line2d_19"/>
    <g id="text_16">
     <!-- GPND -->
     <defs>
      <path d="M 59.515625 10.40625 
L 59.515625 29.984375 
L 43.40625 29.984375 
L 43.40625 38.09375 
L 69.28125 38.09375 
L 69.28125 6.78125 
Q 63.578125 2.734375 56.6875 0.65625 
Q 49.8125 -1.421875 42 -1.421875 
Q 24.90625 -1.421875 15.25 8.5625 
Q 5.609375 18.5625 5.609375 36.375 
Q 5.609375 54.25 15.25 64.234375 
Q 24.90625 74.21875 42 74.21875 
Q 49.125 74.21875 55.546875 72.453125 
Q 61.96875 70.703125 67.390625 67.28125 
L 67.390625 56.78125 
Q 61.921875 61.421875 55.765625 63.765625 
Q 49.609375 66.109375 42.828125 66.109375 
Q 29.4375 66.109375 22.71875 58.640625 
Q 16.015625 51.171875 16.015625 36.375 
Q 16.015625 21.625 22.71875 14.15625 
Q 29.4375 6.6875 42.828125 6.6875 
Q 48.046875 6.6875 52.140625 7.59375 
Q 56.25 8.5 59.515625 10.40625 
z
" id="DejaVuSans-47"/>
      <path d="M 19.671875 64.796875 
L 19.671875 37.40625 
L 32.078125 37.40625 
Q 38.96875 37.40625 42.71875 40.96875 
Q 46.484375 44.53125 46.484375 51.125 
Q 46.484375 57.671875 42.71875 61.234375 
Q 38.96875 64.796875 32.078125 64.796875 
z
M 9.8125 72.90625 
L 32.078125 72.90625 
Q 44.34375 72.90625 50.609375 67.359375 
Q 56.890625 61.8125 56.890625 51.125 
Q 56.890625 40.328125 50.609375 34.8125 
Q 44.34375 29.296875 32.078125 29.296875 
L 19.671875 29.296875 
L 19.671875 0 
L 9.8125 0 
z
" id="DejaVuSans-50"/>
      <path d="M 9.8125 72.90625 
L 23.09375 72.90625 
L 55.421875 11.921875 
L 55.421875 72.90625 
L 64.984375 72.90625 
L 64.984375 0 
L 51.703125 0 
L 19.390625 60.984375 
L 19.390625 0 
L 9.8125 0 
z
" id="DejaVuSans-4e"/>
     </defs>
     <g transform="translate(369.430938 72.748563)scale(0.1 -0.1)">
      <use xlink:href="#DejaVuSans-47"/>
      <use x="77.490234" xlink:href="#DejaVuSans-50"/>
      <use x="137.792969" xlink:href="#DejaVuSans-4e"/>
      <use x="212.597656" xlink:href="#DejaVuSans-44"/>
     </g>
    </g>
    <g id="line2d_20">
     <path d="M 341.430938 83.926688 
L 361.430938 83.926688 
" style="fill:none;stroke:#2ca02c;stroke-linecap:square;stroke-width:1.5;"/>
    </g>
    <g id="line2d_21"/>
    <g id="text_17">
     <!-- ALOCC -->
     <defs>
      <path d="M 34.1875 63.1875 
L 20.796875 26.90625 
L 47.609375 26.90625 
z
M 28.609375 72.90625 
L 39.796875 72.90625 
L 67.578125 0 
L 57.328125 0 
L 50.6875 18.703125 
L 17.828125 18.703125 
L 11.1875 0 
L 0.78125 0 
z
" id="DejaVuSans-41"/>
      <path d="M 9.8125 72.90625 
L 19.671875 72.90625 
L 19.671875 8.296875 
L 55.171875 8.296875 
L 55.171875 0 
L 9.8125 0 
z
" id="DejaVuSans-4c"/>
      <path d="M 39.40625 66.21875 
Q 28.65625 66.21875 22.328125 58.203125 
Q 16.015625 50.203125 16.015625 36.375 
Q 16.015625 22.609375 22.328125 14.59375 
Q 28.65625 6.59375 39.40625 6.59375 
Q 50.140625 6.59375 56.421875 14.59375 
Q 62.703125 22.609375 62.703125 36.375 
Q 62.703125 50.203125 56.421875 58.203125 
Q 50.140625 66.21875 39.40625 66.21875 
z
M 39.40625 74.21875 
Q 54.734375 74.21875 63.90625 63.9375 
Q 73.09375 53.65625 73.09375 36.375 
Q 73.09375 19.140625 63.90625 8.859375 
Q 54.734375 -1.421875 39.40625 -1.421875 
Q 24.03125 -1.421875 14.8125 8.828125 
Q 5.609375 19.09375 5.609375 36.375 
Q 5.609375 53.65625 14.8125 63.9375 
Q 24.03125 74.21875 39.40625 74.21875 
z
" id="DejaVuSans-4f"/>
      <path d="M 64.40625 67.28125 
L 64.40625 56.890625 
Q 59.421875 61.53125 53.78125 63.8125 
Q 48.140625 66.109375 41.796875 66.109375 
Q 29.296875 66.109375 22.65625 58.46875 
Q 16.015625 50.828125 16.015625 36.375 
Q 16.015625 21.96875 22.65625 14.328125 
Q 29.296875 6.6875 41.796875 6.6875 
Q 48.140625 6.6875 53.78125 8.984375 
Q 59.421875 11.28125 64.40625 15.921875 
L 64.40625 5.609375 
Q 59.234375 2.09375 53.4375 0.328125 
Q 47.65625 -1.421875 41.21875 -1.421875 
Q 24.65625 -1.421875 15.125 8.703125 
Q 5.609375 18.84375 5.609375 36.375 
Q 5.609375 53.953125 15.125 64.078125 
Q 24.65625 74.21875 41.21875 74.21875 
Q 47.75 74.21875 53.53125 72.484375 
Q 59.328125 70.75 64.40625 67.28125 
z
" id="DejaVuSans-43"/>
     </defs>
     <g transform="translate(369.430938 87.426688)scale(0.1 -0.1)">
      <use xlink:href="#DejaVuSans-41"/>
      <use x="68.408203" xlink:href="#DejaVuSans-4c"/>
      <use x="124.074219" xlink:href="#DejaVuSans-4f"/>
      <use x="202.785156" xlink:href="#DejaVuSans-43"/>
      <use x="272.609375" xlink:href="#DejaVuSans-43"/>
     </g>
    </g>
   </g>
  </g>
 </g>
 <defs>
  <clipPath id="p653452c0b6">
   <rect height="266.112" width="357.12" x="57.6" y="41.472"/>
  </clipPath>
 </defs>
</svg>
