<?xml version="1.0" encoding="utf-8" standalone="no"?>
<!DOCTYPE svg PUBLIC "-//W3C//DTD SVG 1.1//EN"
  "http://www.w3.org/Graphics/SVG/1.1/DTD/svg11.dtd">
<!-- Created with matplotlib (http://matplotlib.org/) -->
<svg height="345.6pt" version="1.1" viewBox="0 0 460.8 345.6" width="460.8pt" xmlns="http://www.w3.org/2000/svg" xmlns:xlink="http://www.w3.org/1999/xlink">
 <defs>
  <style type="text/css">
*{stroke-linecap:butt;stroke-linejoin:round;}
  </style>
 </defs>
 <g id="figure_1">
  <g id="patch_1">
   <path d="M 0 345.6 
L 460.8 345.6 
L 460.8 0 
L 0 0 
z
" style="fill:#ffffff;"/>
  </g>
  <g id="axes_1">
   <g id="patch_2">
    <path d="M 57.6 307.584 
L 414.72 307.584 
L 414.72 41.472 
L 57.6 41.472 
z
" style="fill:#ffffff;"/>
   </g>
   <g id="matplotlib.axis_1">
    <g id="xtick_1">
     <g id="line2d_1">
      <defs>
       <path d="M 0 0 
L 0 3.5 
" id="m5a8063a74f" style="stroke:#000000;stroke-width:0.8;"/>
      </defs>
      <g>
       <use style="stroke:#000000;stroke-width:0.8;" x="73.832727" xlink:href="#m5a8063a74f" y="307.584"/>
      </g>
     </g>
     <g id="text_1">
      <!-- 0.0 -->
      <defs>
       <path d="M 31.78125 66.40625 
Q 24.171875 66.40625 20.328125 58.90625 
Q 16.5 51.421875 16.5 36.375 
Q 16.5 21.390625 20.328125 13.890625 
Q 24.171875 6.390625 31.78125 6.390625 
Q 39.453125 6.390625 43.28125 13.890625 
Q 47.125 21.390625 47.125 36.375 
Q 47.125 51.421875 43.28125 58.90625 
Q 39.453125 66.40625 31.78125 66.40625 
z
M 31.78125 74.21875 
Q 44.046875 74.21875 50.515625 64.515625 
Q 56.984375 54.828125 56.984375 36.375 
Q 56.984375 17.96875 50.515625 8.265625 
Q 44.046875 -1.421875 31.78125 -1.421875 
Q 19.53125 -1.421875 13.0625 8.265625 
Q 6.59375 17.96875 6.59375 36.375 
Q 6.59375 54.828125 13.0625 64.515625 
Q 19.53125 74.21875 31.78125 74.21875 
z
" id="DejaVuSans-30"/>
       <path d="M 10.6875 12.40625 
L 21 12.40625 
L 21 0 
L 10.6875 0 
z
" id="DejaVuSans-2e"/>
      </defs>
      <g transform="translate(65.881165 322.182437)scale(0.1 -0.1)">
       <use xlink:href="#DejaVuSans-30"/>
       <use x="63.623047" xlink:href="#DejaVuSans-2e"/>
       <use x="95.410156" xlink:href="#DejaVuSans-30"/>
      </g>
     </g>
    </g>
    <g id="xtick_2">
     <g id="line2d_2">
      <g>
       <use style="stroke:#000000;stroke-width:0.8;" x="138.763636" xlink:href="#m5a8063a74f" y="307.584"/>
      </g>
     </g>
     <g id="text_2">
      <!-- 0.2 -->
      <defs>
       <path d="M 19.1875 8.296875 
L 53.609375 8.296875 
L 53.609375 0 
L 7.328125 0 
L 7.328125 8.296875 
Q 12.9375 14.109375 22.625 23.890625 
Q 32.328125 33.6875 34.8125 36.53125 
Q 39.546875 41.84375 41.421875 45.53125 
Q 43.3125 49.21875 43.3125 52.78125 
Q 43.3125 58.59375 39.234375 62.25 
Q 35.15625 65.921875 28.609375 65.921875 
Q 23.96875 65.921875 18.8125 64.3125 
Q 13.671875 62.703125 7.8125 59.421875 
L 7.8125 69.390625 
Q 13.765625 71.78125 18.9375 73 
Q 24.125 74.21875 28.421875 74.21875 
Q 39.75 74.21875 46.484375 68.546875 
Q 53.21875 62.890625 53.21875 53.421875 
Q 53.21875 48.921875 51.53125 44.890625 
Q 49.859375 40.875 45.40625 35.40625 
Q 44.1875 33.984375 37.640625 27.21875 
Q 31.109375 20.453125 19.1875 8.296875 
z
" id="DejaVuSans-32"/>
      </defs>
      <g transform="translate(130.812074 322.182437)scale(0.1 -0.1)">
       <use xlink:href="#DejaVuSans-30"/>
       <use x="63.623047" xlink:href="#DejaVuSans-2e"/>
       <use x="95.410156" xlink:href="#DejaVuSans-32"/>
      </g>
     </g>
    </g>
    <g id="xtick_3">
     <g id="line2d_3">
      <g>
       <use style="stroke:#000000;stroke-width:0.8;" x="203.694545" xlink:href="#m5a8063a74f" y="307.584"/>
      </g>
     </g>
     <g id="text_3">
      <!-- 0.4 -->
      <defs>
       <path d="M 37.796875 64.3125 
L 12.890625 25.390625 
L 37.796875 25.390625 
z
M 35.203125 72.90625 
L 47.609375 72.90625 
L 47.609375 25.390625 
L 58.015625 25.390625 
L 58.015625 17.1875 
L 47.609375 17.1875 
L 47.609375 0 
L 37.796875 0 
L 37.796875 17.1875 
L 4.890625 17.1875 
L 4.890625 26.703125 
z
" id="DejaVuSans-34"/>
      </defs>
      <g transform="translate(195.742983 322.182437)scale(0.1 -0.1)">
       <use xlink:href="#DejaVuSans-30"/>
       <use x="63.623047" xlink:href="#DejaVuSans-2e"/>
       <use x="95.410156" xlink:href="#DejaVuSans-34"/>
      </g>
     </g>
    </g>
    <g id="xtick_4">
     <g id="line2d_4">
      <g>
       <use style="stroke:#000000;stroke-width:0.8;" x="268.625455" xlink:href="#m5a8063a74f" y="307.584"/>
      </g>
     </g>
     <g id="text_4">
      <!-- 0.6 -->
      <defs>
       <path d="M 33.015625 40.375 
Q 26.375 40.375 22.484375 35.828125 
Q 18.609375 31.296875 18.609375 23.390625 
Q 18.609375 15.53125 22.484375 10.953125 
Q 26.375 6.390625 33.015625 6.390625 
Q 39.65625 6.390625 43.53125 10.953125 
Q 47.40625 15.53125 47.40625 23.390625 
Q 47.40625 31.296875 43.53125 35.828125 
Q 39.65625 40.375 33.015625 40.375 
z
M 52.59375 71.296875 
L 52.59375 62.3125 
Q 48.875 64.0625 45.09375 64.984375 
Q 41.3125 65.921875 37.59375 65.921875 
Q 27.828125 65.921875 22.671875 59.328125 
Q 17.53125 52.734375 16.796875 39.40625 
Q 19.671875 43.65625 24.015625 45.921875 
Q 28.375 48.1875 33.59375 48.1875 
Q 44.578125 48.1875 50.953125 41.515625 
Q 57.328125 34.859375 57.328125 23.390625 
Q 57.328125 12.15625 50.6875 5.359375 
Q 44.046875 -1.421875 33.015625 -1.421875 
Q 20.359375 -1.421875 13.671875 8.265625 
Q 6.984375 17.96875 6.984375 36.375 
Q 6.984375 53.65625 15.1875 63.9375 
Q 23.390625 74.21875 37.203125 74.21875 
Q 40.921875 74.21875 44.703125 73.484375 
Q 48.484375 72.75 52.59375 71.296875 
z
" id="DejaVuSans-36"/>
      </defs>
      <g transform="translate(260.673892 322.182437)scale(0.1 -0.1)">
       <use xlink:href="#DejaVuSans-30"/>
       <use x="63.623047" xlink:href="#DejaVuSans-2e"/>
       <use x="95.410156" xlink:href="#DejaVuSans-36"/>
      </g>
     </g>
    </g>
    <g id="xtick_5">
     <g id="line2d_5">
      <g>
       <use style="stroke:#000000;stroke-width:0.8;" x="333.556364" xlink:href="#m5a8063a74f" y="307.584"/>
      </g>
     </g>
     <g id="text_5">
      <!-- 0.8 -->
      <defs>
       <path d="M 31.78125 34.625 
Q 24.75 34.625 20.71875 30.859375 
Q 16.703125 27.09375 16.703125 20.515625 
Q 16.703125 13.921875 20.71875 10.15625 
Q 24.75 6.390625 31.78125 6.390625 
Q 38.8125 6.390625 42.859375 10.171875 
Q 46.921875 13.96875 46.921875 20.515625 
Q 46.921875 27.09375 42.890625 30.859375 
Q 38.875 34.625 31.78125 34.625 
z
M 21.921875 38.8125 
Q 15.578125 40.375 12.03125 44.71875 
Q 8.5 49.078125 8.5 55.328125 
Q 8.5 64.0625 14.71875 69.140625 
Q 20.953125 74.21875 31.78125 74.21875 
Q 42.671875 74.21875 48.875 69.140625 
Q 55.078125 64.0625 55.078125 55.328125 
Q 55.078125 49.078125 51.53125 44.71875 
Q 48 40.375 41.703125 38.8125 
Q 48.828125 37.15625 52.796875 32.3125 
Q 56.78125 27.484375 56.78125 20.515625 
Q 56.78125 9.90625 50.3125 4.234375 
Q 43.84375 -1.421875 31.78125 -1.421875 
Q 19.734375 -1.421875 13.25 4.234375 
Q 6.78125 9.90625 6.78125 20.515625 
Q 6.78125 27.484375 10.78125 32.3125 
Q 14.796875 37.15625 21.921875 38.8125 
z
M 18.3125 54.390625 
Q 18.3125 48.734375 21.84375 45.5625 
Q 25.390625 42.390625 31.78125 42.390625 
Q 38.140625 42.390625 41.71875 45.5625 
Q 45.3125 48.734375 45.3125 54.390625 
Q 45.3125 60.0625 41.71875 63.234375 
Q 38.140625 66.40625 31.78125 66.40625 
Q 25.390625 66.40625 21.84375 63.234375 
Q 18.3125 60.0625 18.3125 54.390625 
z
" id="DejaVuSans-38"/>
      </defs>
      <g transform="translate(325.604801 322.182437)scale(0.1 -0.1)">
       <use xlink:href="#DejaVuSans-30"/>
       <use x="63.623047" xlink:href="#DejaVuSans-2e"/>
       <use x="95.410156" xlink:href="#DejaVuSans-38"/>
      </g>
     </g>
    </g>
    <g id="xtick_6">
     <g id="line2d_6">
      <g>
       <use style="stroke:#000000;stroke-width:0.8;" x="398.487273" xlink:href="#m5a8063a74f" y="307.584"/>
      </g>
     </g>
     <g id="text_6">
      <!-- 1.0 -->
      <defs>
       <path d="M 12.40625 8.296875 
L 28.515625 8.296875 
L 28.515625 63.921875 
L 10.984375 60.40625 
L 10.984375 69.390625 
L 28.421875 72.90625 
L 38.28125 72.90625 
L 38.28125 8.296875 
L 54.390625 8.296875 
L 54.390625 0 
L 12.40625 0 
z
" id="DejaVuSans-31"/>
      </defs>
      <g transform="translate(390.53571 322.182437)scale(0.1 -0.1)">
       <use xlink:href="#DejaVuSans-31"/>
       <use x="63.623047" xlink:href="#DejaVuSans-2e"/>
       <use x="95.410156" xlink:href="#DejaVuSans-30"/>
      </g>
     </g>
    </g>
    <g id="text_7">
     <!-- Recall -->
     <defs>
      <path d="M 44.390625 34.1875 
Q 47.5625 33.109375 50.5625 29.59375 
Q 53.5625 26.078125 56.59375 19.921875 
L 66.609375 0 
L 56 0 
L 46.6875 18.703125 
Q 43.0625 26.03125 39.671875 28.421875 
Q 36.28125 30.8125 30.421875 30.8125 
L 19.671875 30.8125 
L 19.671875 0 
L 9.8125 0 
L 9.8125 72.90625 
L 32.078125 72.90625 
Q 44.578125 72.90625 50.734375 67.671875 
Q 56.890625 62.453125 56.890625 51.90625 
Q 56.890625 45.015625 53.6875 40.46875 
Q 50.484375 35.9375 44.390625 34.1875 
z
M 19.671875 64.796875 
L 19.671875 38.921875 
L 32.078125 38.921875 
Q 39.203125 38.921875 42.84375 42.21875 
Q 46.484375 45.515625 46.484375 51.90625 
Q 46.484375 58.296875 42.84375 61.546875 
Q 39.203125 64.796875 32.078125 64.796875 
z
" id="DejaVuSans-52"/>
      <path d="M 56.203125 29.59375 
L 56.203125 25.203125 
L 14.890625 25.203125 
Q 15.484375 15.921875 20.484375 11.0625 
Q 25.484375 6.203125 34.421875 6.203125 
Q 39.59375 6.203125 44.453125 7.46875 
Q 49.3125 8.734375 54.109375 11.28125 
L 54.109375 2.78125 
Q 49.265625 0.734375 44.1875 -0.34375 
Q 39.109375 -1.421875 33.890625 -1.421875 
Q 20.796875 -1.421875 13.15625 6.1875 
Q 5.515625 13.8125 5.515625 26.8125 
Q 5.515625 40.234375 12.765625 48.109375 
Q 20.015625 56 32.328125 56 
Q 43.359375 56 49.78125 48.890625 
Q 56.203125 41.796875 56.203125 29.59375 
z
M 47.21875 32.234375 
Q 47.125 39.59375 43.09375 43.984375 
Q 39.0625 48.390625 32.421875 48.390625 
Q 24.90625 48.390625 20.390625 44.140625 
Q 15.875 39.890625 15.1875 32.171875 
z
" id="DejaVuSans-65"/>
      <path d="M 48.78125 52.59375 
L 48.78125 44.1875 
Q 44.96875 46.296875 41.140625 47.34375 
Q 37.3125 48.390625 33.40625 48.390625 
Q 24.65625 48.390625 19.8125 42.84375 
Q 14.984375 37.3125 14.984375 27.296875 
Q 14.984375 17.28125 19.8125 11.734375 
Q 24.65625 6.203125 33.40625 6.203125 
Q 37.3125 6.203125 41.140625 7.25 
Q 44.96875 8.296875 48.78125 10.40625 
L 48.78125 2.09375 
Q 45.015625 0.34375 40.984375 -0.53125 
Q 36.96875 -1.421875 32.421875 -1.421875 
Q 20.0625 -1.421875 12.78125 6.34375 
Q 5.515625 14.109375 5.515625 27.296875 
Q 5.515625 40.671875 12.859375 48.328125 
Q 20.21875 56 33.015625 56 
Q 37.15625 56 41.109375 55.140625 
Q 45.0625 54.296875 48.78125 52.59375 
z
" id="DejaVuSans-63"/>
      <path d="M 34.28125 27.484375 
Q 23.390625 27.484375 19.1875 25 
Q 14.984375 22.515625 14.984375 16.5 
Q 14.984375 11.71875 18.140625 8.90625 
Q 21.296875 6.109375 26.703125 6.109375 
Q 34.1875 6.109375 38.703125 11.40625 
Q 43.21875 16.703125 43.21875 25.484375 
L 43.21875 27.484375 
z
M 52.203125 31.203125 
L 52.203125 0 
L 43.21875 0 
L 43.21875 8.296875 
Q 40.140625 3.328125 35.546875 0.953125 
Q 30.953125 -1.421875 24.3125 -1.421875 
Q 15.921875 -1.421875 10.953125 3.296875 
Q 6 8.015625 6 15.921875 
Q 6 25.140625 12.171875 29.828125 
Q 18.359375 34.515625 30.609375 34.515625 
L 43.21875 34.515625 
L 43.21875 35.40625 
Q 43.21875 41.609375 39.140625 45 
Q 35.0625 48.390625 27.6875 48.390625 
Q 23 48.390625 18.546875 47.265625 
Q 14.109375 46.140625 10.015625 43.890625 
L 10.015625 52.203125 
Q 14.9375 54.109375 19.578125 55.046875 
Q 24.21875 56 28.609375 56 
Q 40.484375 56 46.34375 49.84375 
Q 52.203125 43.703125 52.203125 31.203125 
z
" id="DejaVuSans-61"/>
      <path d="M 9.421875 75.984375 
L 18.40625 75.984375 
L 18.40625 0 
L 9.421875 0 
z
" id="DejaVuSans-6c"/>
     </defs>
     <g transform="translate(221.020938 335.860562)scale(0.1 -0.1)">
      <use xlink:href="#DejaVuSans-52"/>
      <use x="69.419922" xlink:href="#DejaVuSans-65"/>
      <use x="130.943359" xlink:href="#DejaVuSans-63"/>
      <use x="185.923828" xlink:href="#DejaVuSans-61"/>
      <use x="247.203125" xlink:href="#DejaVuSans-6c"/>
      <use x="274.986328" xlink:href="#DejaVuSans-6c"/>
     </g>
    </g>
   </g>
   <g id="matplotlib.axis_2">
    <g id="ytick_1">
     <g id="line2d_7">
      <defs>
       <path d="M 0 0 
L -3.5 0 
" id="m9cc7c53a36" style="stroke:#000000;stroke-width:0.8;"/>
      </defs>
      <g>
       <use style="stroke:#000000;stroke-width:0.8;" x="57.6" xlink:href="#m9cc7c53a36" y="304.179737"/>
      </g>
     </g>
     <g id="text_8">
      <!-- 0.5 -->
      <defs>
       <path d="M 10.796875 72.90625 
L 49.515625 72.90625 
L 49.515625 64.59375 
L 19.828125 64.59375 
L 19.828125 46.734375 
Q 21.96875 47.46875 24.109375 47.828125 
Q 26.265625 48.1875 28.421875 48.1875 
Q 40.625 48.1875 47.75 41.5 
Q 54.890625 34.8125 54.890625 23.390625 
Q 54.890625 11.625 47.5625 5.09375 
Q 40.234375 -1.421875 26.90625 -1.421875 
Q 22.3125 -1.421875 17.546875 -0.640625 
Q 12.796875 0.140625 7.71875 1.703125 
L 7.71875 11.625 
Q 12.109375 9.234375 16.796875 8.0625 
Q 21.484375 6.890625 26.703125 6.890625 
Q 35.15625 6.890625 40.078125 11.328125 
Q 45.015625 15.765625 45.015625 23.390625 
Q 45.015625 31 40.078125 35.4375 
Q 35.15625 39.890625 26.703125 39.890625 
Q 22.75 39.890625 18.8125 39.015625 
Q 14.890625 38.140625 10.796875 36.28125 
z
" id="DejaVuSans-35"/>
      </defs>
      <g transform="translate(34.696875 307.978955)scale(0.1 -0.1)">
       <use xlink:href="#DejaVuSans-30"/>
       <use x="63.623047" xlink:href="#DejaVuSans-2e"/>
       <use x="95.410156" xlink:href="#DejaVuSans-35"/>
      </g>
     </g>
    </g>
    <g id="ytick_2">
     <g id="line2d_8">
      <g>
       <use style="stroke:#000000;stroke-width:0.8;" x="57.6" xlink:href="#m9cc7c53a36" y="254.057389"/>
      </g>
     </g>
     <g id="text_9">
      <!-- 0.6 -->
      <g transform="translate(34.696875 257.856608)scale(0.1 -0.1)">
       <use xlink:href="#DejaVuSans-30"/>
       <use x="63.623047" xlink:href="#DejaVuSans-2e"/>
       <use x="95.410156" xlink:href="#DejaVuSans-36"/>
      </g>
     </g>
    </g>
    <g id="ytick_3">
     <g id="line2d_9">
      <g>
       <use style="stroke:#000000;stroke-width:0.8;" x="57.6" xlink:href="#m9cc7c53a36" y="203.935042"/>
      </g>
     </g>
     <g id="text_10">
      <!-- 0.7 -->
      <defs>
       <path d="M 8.203125 72.90625 
L 55.078125 72.90625 
L 55.078125 68.703125 
L 28.609375 0 
L 18.3125 0 
L 43.21875 64.59375 
L 8.203125 64.59375 
z
" id="DejaVuSans-37"/>
      </defs>
      <g transform="translate(34.696875 207.734261)scale(0.1 -0.1)">
       <use xlink:href="#DejaVuSans-30"/>
       <use x="63.623047" xlink:href="#DejaVuSans-2e"/>
       <use x="95.410156" xlink:href="#DejaVuSans-37"/>
      </g>
     </g>
    </g>
    <g id="ytick_4">
     <g id="line2d_10">
      <g>
       <use style="stroke:#000000;stroke-width:0.8;" x="57.6" xlink:href="#m9cc7c53a36" y="153.812695"/>
      </g>
     </g>
     <g id="text_11">
      <!-- 0.8 -->
      <g transform="translate(34.696875 157.611913)scale(0.1 -0.1)">
       <use xlink:href="#DejaVuSans-30"/>
       <use x="63.623047" xlink:href="#DejaVuSans-2e"/>
       <use x="95.410156" xlink:href="#DejaVuSans-38"/>
      </g>
     </g>
    </g>
    <g id="ytick_5">
     <g id="line2d_11">
      <g>
       <use style="stroke:#000000;stroke-width:0.8;" x="57.6" xlink:href="#m9cc7c53a36" y="103.690347"/>
      </g>
     </g>
     <g id="text_12">
      <!-- 0.9 -->
      <defs>
       <path d="M 10.984375 1.515625 
L 10.984375 10.5 
Q 14.703125 8.734375 18.5 7.8125 
Q 22.3125 6.890625 25.984375 6.890625 
Q 35.75 6.890625 40.890625 13.453125 
Q 46.046875 20.015625 46.78125 33.40625 
Q 43.953125 29.203125 39.59375 26.953125 
Q 35.25 24.703125 29.984375 24.703125 
Q 19.046875 24.703125 12.671875 31.3125 
Q 6.296875 37.9375 6.296875 49.421875 
Q 6.296875 60.640625 12.9375 67.421875 
Q 19.578125 74.21875 30.609375 74.21875 
Q 43.265625 74.21875 49.921875 64.515625 
Q 56.59375 54.828125 56.59375 36.375 
Q 56.59375 19.140625 48.40625 8.859375 
Q 40.234375 -1.421875 26.421875 -1.421875 
Q 22.703125 -1.421875 18.890625 -0.6875 
Q 15.09375 0.046875 10.984375 1.515625 
z
M 30.609375 32.421875 
Q 37.25 32.421875 41.125 36.953125 
Q 45.015625 41.5 45.015625 49.421875 
Q 45.015625 57.28125 41.125 61.84375 
Q 37.25 66.40625 30.609375 66.40625 
Q 23.96875 66.40625 20.09375 61.84375 
Q 16.21875 57.28125 16.21875 49.421875 
Q 16.21875 41.5 20.09375 36.953125 
Q 23.96875 32.421875 30.609375 32.421875 
z
" id="DejaVuSans-39"/>
      </defs>
      <g transform="translate(34.696875 107.489566)scale(0.1 -0.1)">
       <use xlink:href="#DejaVuSans-30"/>
       <use x="63.623047" xlink:href="#DejaVuSans-2e"/>
       <use x="95.410156" xlink:href="#DejaVuSans-39"/>
      </g>
     </g>
    </g>
    <g id="ytick_6">
     <g id="line2d_12">
      <g>
       <use style="stroke:#000000;stroke-width:0.8;" x="57.6" xlink:href="#m9cc7c53a36" y="53.568"/>
      </g>
     </g>
     <g id="text_13">
      <!-- 1.0 -->
      <g transform="translate(34.696875 57.367219)scale(0.1 -0.1)">
       <use xlink:href="#DejaVuSans-31"/>
       <use x="63.623047" xlink:href="#DejaVuSans-2e"/>
       <use x="95.410156" xlink:href="#DejaVuSans-30"/>
      </g>
     </g>
    </g>
    <g id="text_14">
     <!-- Precision -->
     <defs>
      <path d="M 19.671875 64.796875 
L 19.671875 37.40625 
L 32.078125 37.40625 
Q 38.96875 37.40625 42.71875 40.96875 
Q 46.484375 44.53125 46.484375 51.125 
Q 46.484375 57.671875 42.71875 61.234375 
Q 38.96875 64.796875 32.078125 64.796875 
z
M 9.8125 72.90625 
L 32.078125 72.90625 
Q 44.34375 72.90625 50.609375 67.359375 
Q 56.890625 61.8125 56.890625 51.125 
Q 56.890625 40.328125 50.609375 34.8125 
Q 44.34375 29.296875 32.078125 29.296875 
L 19.671875 29.296875 
L 19.671875 0 
L 9.8125 0 
z
" id="DejaVuSans-50"/>
      <path d="M 41.109375 46.296875 
Q 39.59375 47.171875 37.8125 47.578125 
Q 36.03125 48 33.890625 48 
Q 26.265625 48 22.1875 43.046875 
Q 18.109375 38.09375 18.109375 28.8125 
L 18.109375 0 
L 9.078125 0 
L 9.078125 54.6875 
L 18.109375 54.6875 
L 18.109375 46.1875 
Q 20.953125 51.171875 25.484375 53.578125 
Q 30.03125 56 36.53125 56 
Q 37.453125 56 38.578125 55.875 
Q 39.703125 55.765625 41.0625 55.515625 
z
" id="DejaVuSans-72"/>
      <path d="M 9.421875 54.6875 
L 18.40625 54.6875 
L 18.40625 0 
L 9.421875 0 
z
M 9.421875 75.984375 
L 18.40625 75.984375 
L 18.40625 64.59375 
L 9.421875 64.59375 
z
" id="DejaVuSans-69"/>
      <path d="M 44.28125 53.078125 
L 44.28125 44.578125 
Q 40.484375 46.53125 36.375 47.5 
Q 32.28125 48.484375 27.875 48.484375 
Q 21.1875 48.484375 17.84375 46.4375 
Q 14.5 44.390625 14.5 40.28125 
Q 14.5 37.15625 16.890625 35.375 
Q 19.28125 33.59375 26.515625 31.984375 
L 29.59375 31.296875 
Q 39.15625 29.25 43.1875 25.515625 
Q 47.21875 21.78125 47.21875 15.09375 
Q 47.21875 7.46875 41.1875 3.015625 
Q 35.15625 -1.421875 24.609375 -1.421875 
Q 20.21875 -1.421875 15.453125 -0.5625 
Q 10.6875 0.296875 5.421875 2 
L 5.421875 11.28125 
Q 10.40625 8.6875 15.234375 7.390625 
Q 20.0625 6.109375 24.8125 6.109375 
Q 31.15625 6.109375 34.5625 8.28125 
Q 37.984375 10.453125 37.984375 14.40625 
Q 37.984375 18.0625 35.515625 20.015625 
Q 33.0625 21.96875 24.703125 23.78125 
L 21.578125 24.515625 
Q 13.234375 26.265625 9.515625 29.90625 
Q 5.8125 33.546875 5.8125 39.890625 
Q 5.8125 47.609375 11.28125 51.796875 
Q 16.75 56 26.8125 56 
Q 31.78125 56 36.171875 55.265625 
Q 40.578125 54.546875 44.28125 53.078125 
z
" id="DejaVuSans-73"/>
      <path d="M 30.609375 48.390625 
Q 23.390625 48.390625 19.1875 42.75 
Q 14.984375 37.109375 14.984375 27.296875 
Q 14.984375 17.484375 19.15625 11.84375 
Q 23.34375 6.203125 30.609375 6.203125 
Q 37.796875 6.203125 41.984375 11.859375 
Q 46.1875 17.53125 46.1875 27.296875 
Q 46.1875 37.015625 41.984375 42.703125 
Q 37.796875 48.390625 30.609375 48.390625 
z
M 30.609375 56 
Q 42.328125 56 49.015625 48.375 
Q 55.71875 40.765625 55.71875 27.296875 
Q 55.71875 13.875 49.015625 6.21875 
Q 42.328125 -1.421875 30.609375 -1.421875 
Q 18.84375 -1.421875 12.171875 6.21875 
Q 5.515625 13.875 5.515625 27.296875 
Q 5.515625 40.765625 12.171875 48.375 
Q 18.84375 56 30.609375 56 
z
" id="DejaVuSans-6f"/>
      <path d="M 54.890625 33.015625 
L 54.890625 0 
L 45.90625 0 
L 45.90625 32.71875 
Q 45.90625 40.484375 42.875 44.328125 
Q 39.84375 48.1875 33.796875 48.1875 
Q 26.515625 48.1875 22.3125 43.546875 
Q 18.109375 38.921875 18.109375 30.90625 
L 18.109375 0 
L 9.078125 0 
L 9.078125 54.6875 
L 18.109375 54.6875 
L 18.109375 46.1875 
Q 21.34375 51.125 25.703125 53.5625 
Q 30.078125 56 35.796875 56 
Q 45.21875 56 50.046875 50.171875 
Q 54.890625 44.34375 54.890625 33.015625 
z
" id="DejaVuSans-6e"/>
     </defs>
     <g transform="translate(28.617187 197.032688)rotate(-90)scale(0.1 -0.1)">
      <use xlink:href="#DejaVuSans-50"/>
      <use x="60.287109" xlink:href="#DejaVuSans-72"/>
      <use x="101.369141" xlink:href="#DejaVuSans-65"/>
      <use x="162.892578" xlink:href="#DejaVuSans-63"/>
      <use x="217.873047" xlink:href="#DejaVuSans-69"/>
      <use x="245.65625" xlink:href="#DejaVuSans-73"/>
      <use x="297.755859" xlink:href="#DejaVuSans-69"/>
      <use x="325.539062" xlink:href="#DejaVuSans-6f"/>
      <use x="386.720703" xlink:href="#DejaVuSans-6e"/>
     </g>
    </g>
   </g>
   <g id="line2d_13">
    <path clip-path="url(#p336e6f1629)" d="M 398.487273 269.560698 
L 397.630664 269.885499 
L 397.630664 265.093502 
L 396.774056 265.417431 
L 396.774056 259.539521 
L 395.06084 260.1852 
L 395.06084 256.444168 
L 394.204231 256.766705 
L 394.204231 251.462057 
L 393.347623 251.782793 
L 393.347623 247.802384 
L 392.491015 248.121848 
L 392.491015 246.601172 
L 391.634406 246.920764 
L 391.634406 230.264582 
L 390.777798 230.573492 
L 390.777798 228.290267 
L 389.92119 228.598419 
L 389.92119 227.443753 
L 388.207973 228.061429 
L 388.207973 220.338719 
L 387.351365 220.642491 
L 387.351365 205.367109 
L 386.494757 205.656802 
L 386.494757 204.319121 
L 385.638148 204.608471 
L 385.638148 202.580384 
L 383.924932 203.157951 
L 383.924932 202.475168 
L 383.068323 202.76487 
L 383.068323 198.607076 
L 382.211715 198.893149 
L 382.211715 197.483651 
L 381.355107 197.769198 
L 381.355107 188.316469 
L 380.498498 188.591466 
L 380.498498 182.513458 
L 379.64189 182.781536 
L 379.64189 174.883236 
L 378.785282 175.141353 
L 378.785282 172.702487 
L 377.928674 172.958141 
L 377.928674 172.136994 
L 377.072065 172.39253 
L 377.072065 163.106905 
L 376.215457 163.349247 
L 376.215457 162.481305 
L 375.358849 162.723334 
L 375.358849 160.97303 
L 374.50224 161.21331 
L 374.50224 160.330847 
L 373.645632 160.570764 
L 373.645632 156.995066 
L 372.789024 157.230127 
L 372.789024 155.414779 
L 370.219199 156.11717 
L 370.219199 154.275719 
L 369.362591 154.508838 
L 369.362591 153.580108 
L 368.505982 153.812695 
L 368.505982 152.878012 
L 366.792766 153.343164 
L 366.792766 151.453996 
L 365.079549 151.916814 
L 365.079549 150.962135 
L 364.222941 151.193475 
L 364.222941 150.232527 
L 363.366332 150.46323 
L 363.366332 148.524006 
L 362.509724 148.752265 
L 362.509724 143.812616 
L 360.796508 144.25391 
L 360.796508 141.220381 
L 359.939899 141.436806 
L 359.939899 140.413651 
L 358.226683 140.845719 
L 358.226683 139.813436 
L 356.513466 140.245743 
L 356.513466 139.204171 
L 353.943641 139.854573 
L 353.943641 138.801433 
L 351.373816 139.455398 
L 351.373816 137.319994 
L 349.6606 137.752821 
L 349.6606 135.586386 
L 348.803991 135.799976 
L 348.803991 134.706003 
L 347.947383 134.918407 
L 347.947383 132.708548 
L 347.090775 132.917362 
L 347.090775 131.801293 
L 345.377558 132.217428 
L 345.377558 131.090564 
L 344.52095 131.297843 
L 344.52095 127.873367 
L 342.807733 128.276106 
L 342.807733 127.117097 
L 341.094517 127.519004 
L 341.094517 126.348395 
L 340.237908 126.548341 
L 340.237908 125.368608 
L 339.3813 125.566952 
L 339.3813 121.980117 
L 338.524692 122.171213 
L 338.524692 120.959391 
L 337.668083 121.148693 
L 337.668083 118.698734 
L 336.811475 118.88324 
L 336.811475 117.644864 
L 335.954867 117.82742 
L 335.954867 116.578951 
L 334.24165 116.941083 
L 334.24165 115.679266 
L 333.385042 115.858778 
L 333.385042 114.58651 
L 332.528434 114.763889 
L 332.528434 113.48101 
L 331.671825 113.656194 
L 331.671825 109.752342 
L 329.958609 110.08578 
L 329.958609 104.74397 
L 322.249134 106.165525 
L 322.249134 104.77659 
L 320.535917 105.095647 
L 320.535917 103.690347 
L 319.679309 103.847471 
L 319.679309 98.121198 
L 318.822701 98.263087 
L 318.822701 96.80453 
L 316.252876 97.222948 
L 316.252876 95.742143 
L 315.396268 95.879072 
L 315.396268 94.384244 
L 301.690535 96.628436 
L 296.550885 97.534971 
L 296.550885 89.369677 
L 295.694277 89.497998 
L 295.694277 84.44046 
L 287.128194 85.601079 
L 287.128194 83.830549 
L 281.131936 84.651626 
L 281.131936 82.822288 
L 269.13942 84.507721 
L 269.13942 80.604951 
L 266.569595 80.945753 
L 266.569595 78.946404 
L 263.143161 79.382084 
L 263.143161 77.332906 
L 254.577078 78.403397 
L 254.577078 76.247795 
L 248.58082 76.989658 
L 248.58082 74.746457 
L 246.010995 75.049006 
L 246.010995 72.753587 
L 239.158129 73.517193 
L 239.158129 71.110822 
L 234.875088 71.560637 
L 234.875088 69.069757 
L 234.018479 69.150077 
L 234.018479 66.620695 
L 231.448654 66.82788 
L 231.448654 64.232329 
L 228.022221 64.464162 
L 228.022221 61.784778 
L 210.890055 62.792972 
L 203.18058 63.332094 
L 203.18058 60.119941 
L 198.040931 60.387367 
L 198.040931 57.001037 
L 177.482331 57.676389 
L 162.063382 58.387456 
L 157.780341 58.630863 
L 157.780341 53.568 
L 73.832727 53.568 
L 73.832727 53.568 
" style="fill:none;stroke:#1f77b4;stroke-linecap:square;stroke-width:1.5;"/>
   </g>
   <g id="line2d_14">
    <path clip-path="url(#p336e6f1629)" d="M 398.487273 295.138909 
L 397.582943 295.488 
L 397.582943 283.32702 
L 396.678612 283.67514 
L 396.678612 260.487559 
L 395.774282 260.828448 
L 395.774282 259.856669 
L 394.869952 260.198207 
L 394.869952 250.63022 
L 393.965622 250.967655 
L 393.965622 245.135087 
L 393.061291 245.469994 
L 393.061291 243.291674 
L 392.156961 243.626283 
L 392.156961 241.971149 
L 391.252631 242.305791 
L 391.252631 234.337121 
L 390.348301 234.666992 
L 390.348301 229.321685 
L 389.443971 229.648365 
L 389.443971 227.825133 
L 388.53964 228.151457 
L 388.53964 219.357303 
L 387.63531 219.676743 
L 387.63531 215.095096 
L 386.73098 215.411196 
L 386.73098 210.697581 
L 385.82665 211.009966 
L 385.82665 207.558344 
L 384.92232 207.868184 
L 384.92232 202.912137 
L 384.017989 203.217544 
L 384.017989 196.625533 
L 383.113659 196.924192 
L 383.113659 192.384649 
L 382.209329 192.678752 
L 382.209329 189.583772 
L 380.400669 190.16753 
L 380.400669 186.212824 
L 378.592008 186.790797 
L 378.592008 185.987302 
L 377.687678 186.27706 
L 377.687678 185.468914 
L 376.783348 185.758806 
L 376.783348 183.309474 
L 375.879017 183.597149 
L 375.879017 182.772273 
L 373.166027 183.639416 
L 373.166027 179.440863 
L 372.261697 179.726289 
L 372.261697 177.15735 
L 371.357366 177.440163 
L 371.357366 175.705214 
L 369.548706 176.269358 
L 369.548706 175.39315 
L 368.644376 175.675807 
L 368.644376 174.794142 
L 367.740046 175.076721 
L 367.740046 174.189537 
L 366.835715 174.472023 
L 366.835715 173.579254 
L 364.122725 174.430398 
L 364.122725 172.623457 
L 363.218395 172.906922 
L 363.218395 171.079723 
L 362.314064 171.361526 
L 362.314064 167.647919 
L 360.505404 168.203052 
L 360.505404 160.52884 
L 358.696743 161.062311 
L 358.696743 159.088731 
L 356.888083 159.620322 
L 356.888083 157.619455 
L 354.175092 158.415767 
L 354.175092 157.402019 
L 353.270762 157.66826 
L 353.270762 153.552993 
L 352.366432 153.812695 
L 352.366432 151.718811 
L 351.462102 151.97575 
L 351.462102 150.918491 
L 350.557772 151.174676 
L 350.557772 149.039138 
L 349.653441 149.292377 
L 349.653441 147.129715 
L 348.749111 147.37988 
L 348.749111 146.287624 
L 347.844781 146.53687 
L 347.844781 145.436453 
L 346.940451 145.684746 
L 346.940451 143.46134 
L 346.036121 143.706281 
L 346.036121 141.45376 
L 344.22746 141.937979 
L 344.22746 140.797499 
L 343.32313 141.039132 
L 343.32313 138.734105 
L 342.4188 138.972 
L 342.4188 137.807239 
L 340.610139 138.281826 
L 340.610139 135.921998 
L 339.705809 136.155959 
L 339.705809 126.420249 
L 338.801479 126.632646 
L 338.801479 122.854774 
L 337.897149 123.05916 
L 337.897149 120.49695 
L 333.375498 121.504917 
L 333.375498 120.195894 
L 332.471167 120.397796 
L 332.471167 119.077451 
L 330.662507 119.47812 
L 330.662507 118.142803 
L 329.758177 118.341495 
L 329.758177 115.639018 
L 328.853847 115.831785 
L 328.853847 113.088287 
L 327.045186 113.462629 
L 327.045186 112.070424 
L 325.236526 112.441868 
L 325.236526 111.033112 
L 323.427865 111.401478 
L 323.427865 108.540897 
L 321.619205 108.897864 
L 321.619205 105.983527 
L 320.714875 106.155381 
L 320.714875 104.679604 
L 319.810544 104.848289 
L 319.810544 101.858634 
L 316.193224 102.509013 
L 316.193224 100.981031 
L 312.575903 101.630525 
L 312.575903 100.073271 
L 309.862912 100.557701 
L 309.862912 98.975005 
L 308.958582 99.13377 
L 308.958582 97.534971 
L 305.341261 98.160836 
L 305.341261 96.530012 
L 300.81961 97.311139 
L 300.81961 95.641503 
L 296.297959 96.423539 
L 296.297959 94.71321 
L 289.063317 95.979217 
L 289.063317 94.207741 
L 288.158987 94.365259 
L 288.158987 92.573718 
L 286.350327 92.879645 
L 286.350327 91.061094 
L 285.445996 91.209288 
L 285.445996 89.369677 
L 284.541666 89.512313 
L 284.541666 87.651196 
L 283.637336 87.788076 
L 283.637336 85.904998 
L 276.402694 86.982898 
L 276.402694 85.02554 
L 271.881043 85.69771 
L 271.881043 83.684432 
L 270.072383 83.94518 
L 270.072383 81.898022 
L 268.263722 82.146531 
L 268.263722 73.706443 
L 267.359392 73.79675 
L 267.359392 71.630107 
L 251.985779 73.12794 
L 250.177118 73.320649 
L 250.177118 70.93713 
L 236.612165 72.330376 
L 236.612165 69.736499 
L 232.994844 70.091851 
L 232.994844 67.413952 
L 219.429891 68.665093 
L 207.673598 69.947852 
L 207.673598 66.758091 
L 199.534626 67.588237 
L 199.534626 64.157228 
L 186.874004 65.315425 
L 176.022041 66.530676 
L 174.213381 66.758091 
L 174.213381 62.439212 
L 166.074409 63.206913 
L 166.074409 58.434247 
L 153.413786 59.199724 
L 142.561823 60.077396 
L 134.422851 60.938933 
L 132.614191 61.162295 
L 132.614191 53.568 
L 73.832727 53.568 
L 73.832727 53.568 
" style="fill:none;stroke:#ff7f0e;stroke-linecap:square;stroke-width:1.5;"/>
   </g>
   <g id="line2d_15">
    <path clip-path="url(#p336e6f1629)" d="M 398.487273 284.605708 
L 397.716122 284.901911 
L 397.716122 259.954136 
L 396.944971 260.243598 
L 396.944971 255.628175 
L 396.17382 255.916421 
L 396.17382 254.201212 
L 395.402669 254.489478 
L 395.402669 246.970872 
L 394.631518 247.256127 
L 394.631518 240.298313 
L 393.860367 240.580383 
L 393.860367 239.628229 
L 393.089216 239.910566 
L 393.089216 238.470562 
L 392.318065 238.752856 
L 392.318065 238.269616 
L 391.546914 238.552467 
L 391.546914 233.134042 
L 390.775763 233.414176 
L 390.775763 231.902997 
L 389.233461 232.463799 
L 389.233461 231.956197 
L 388.462311 232.237566 
L 388.462311 231.728002 
L 387.69116 232.009901 
L 387.69116 227.871676 
L 386.148858 228.432138 
L 386.148858 227.906599 
L 385.377707 228.187791 
L 385.377707 224.996224 
L 384.606556 225.275878 
L 384.606556 223.111572 
L 383.835405 223.390427 
L 383.835405 220.642491 
L 383.064254 220.920023 
L 383.064254 214.705834 
L 382.293103 214.978949 
L 382.293103 213.242258 
L 381.521952 213.51474 
L 381.521952 212.931361 
L 379.97965 213.478062 
L 379.97965 211.120111 
L 378.437348 211.666219 
L 378.437348 209.270929 
L 377.666197 209.543137 
L 377.666197 204.645997 
L 376.895046 204.914342 
L 376.895046 200.509414 
L 376.123895 200.774173 
L 376.123895 198.850166 
L 375.352745 199.113836 
L 375.352745 197.166696 
L 374.581594 197.429216 
L 374.581594 194.132516 
L 373.039292 194.653126 
L 373.039292 193.984966 
L 372.268141 194.245964 
L 372.268141 188.803767 
L 371.49699 189.059411 
L 371.49699 183.443564 
L 370.725839 183.693325 
L 370.725839 182.260513 
L 369.183537 182.759322 
L 369.183537 173.901413 
L 368.412386 174.140645 
L 368.412386 169.545262 
L 367.641235 169.779088 
L 367.641235 168.220333 
L 366.870084 168.452893 
L 366.870084 165.29266 
L 366.098933 165.521604 
L 366.098933 163.91967 
L 365.327782 164.147199 
L 365.327782 161.715803 
L 364.556631 161.940643 
L 364.556631 161.122204 
L 363.78548 161.346743 
L 363.78548 157.196482 
L 363.01433 157.415569 
L 363.01433 155.728198 
L 362.243179 155.94556 
L 362.243179 151.656895 
L 361.472028 151.868293 
L 361.472028 150.124037 
L 360.700877 150.333486 
L 360.700877 149.45423 
L 357.616273 150.295337 
L 357.616273 145.810901 
L 356.073971 146.221782 
L 356.073971 142.549246 
L 355.30282 142.749654 
L 355.30282 139.946648 
L 354.531669 140.142964 
L 354.531669 138.249591 
L 352.989367 138.638039 
L 352.989367 137.681364 
L 352.218216 137.875174 
L 352.218216 134.973204 
L 350.675914 135.352716 
L 350.675914 134.372719 
L 346.049009 135.521601 
L 346.049009 134.525711 
L 345.277858 134.718467 
L 345.277858 131.696359 
L 343.735556 132.072881 
L 343.735556 127.958832 
L 341.422103 128.505823 
L 341.422103 126.405894 
L 339.10865 126.948111 
L 339.10865 124.814229 
L 338.337499 124.992345 
L 338.337499 123.915154 
L 337.566349 124.091906 
L 337.566349 121.916655 
L 336.024047 122.263603 
L 336.024047 118.944975 
L 335.252896 119.112608 
L 335.252896 117.992611 
L 332.939443 118.49332 
L 332.939443 117.360078 
L 329.854839 118.029811 
L 329.854839 116.880439 
L 326.770235 117.553975 
L 326.770235 116.388009 
L 325.999084 116.555977 
L 325.999084 109.410833 
L 322.914481 110.02449 
L 322.914481 108.799237 
L 321.372179 109.105227 
L 321.372179 106.622295 
L 319.829877 106.919518 
L 319.829877 104.396296 
L 319.058726 104.539879 
L 319.058726 103.264378 
L 317.516424 103.547549 
L 317.516424 102.25828 
L 316.745273 102.397794 
L 316.745273 99.790338 
L 312.889518 100.466103 
L 312.889518 96.445524 
L 309.804915 96.957495 
L 309.804915 95.586734 
L 308.262613 95.839859 
L 308.262613 90.242888 
L 303.635707 90.926271 
L 303.635707 89.481208 
L 301.322254 89.820012 
L 301.322254 86.877155 
L 299.008802 87.196412 
L 299.008802 84.18937 
L 295.153047 84.689719 
L 295.153047 83.148402 
L 293.610745 83.343652 
L 293.610745 81.782566 
L 279.730028 83.570814 
L 279.730028 81.905723 
L 278.958877 82.006211 
L 278.958877 80.323701 
L 269.705066 81.517264 
L 269.705066 79.751316 
L 260.451255 80.978659 
L 260.451255 79.120569 
L 258.137802 79.424766 
L 258.137802 77.530875 
L 245.028236 79.271768 
L 237.316726 80.419257 
L 237.316726 78.292028 
L 228.834066 79.574878 
L 228.834066 77.322667 
L 221.893708 78.381043 
L 221.893708 76.010842 
L 218.809104 76.466534 
L 218.809104 74.026101 
L 208.784142 75.479409 
L 208.784142 72.845826 
L 206.470689 73.168918 
L 206.470689 70.463173 
L 198.759179 71.468838 
L 198.759179 68.574691 
L 191.04767 69.530531 
L 191.04767 66.419884 
L 185.649613 67.023664 
L 185.649613 63.727935 
L 177.938104 64.464162 
L 177.938104 60.885131 
L 165.599689 61.852686 
L 163.286236 62.063313 
L 163.286236 57.851961 
L 158.659331 58.083527 
L 158.659331 53.568 
L 73.832727 53.568 
L 73.832727 53.568 
" style="fill:none;stroke:#2ca02c;stroke-linecap:square;stroke-width:1.5;"/>
   </g>
   <g id="patch_3">
    <path d="M 57.6 307.584 
L 57.6 41.472 
" style="fill:none;stroke:#000000;stroke-linecap:square;stroke-linejoin:miter;stroke-width:0.8;"/>
   </g>
   <g id="patch_4">
    <path d="M 414.72 307.584 
L 414.72 41.472 
" style="fill:none;stroke:#000000;stroke-linecap:square;stroke-linejoin:miter;stroke-width:0.8;"/>
   </g>
   <g id="patch_5">
    <path d="M 57.6 307.584 
L 414.72 307.584 
" style="fill:none;stroke:#000000;stroke-linecap:square;stroke-linejoin:miter;stroke-width:0.8;"/>
   </g>
   <g id="patch_6">
    <path d="M 57.6 41.472 
L 414.72 41.472 
" style="fill:none;stroke:#000000;stroke-linecap:square;stroke-linejoin:miter;stroke-width:0.8;"/>
   </g>
   <g id="text_15">
    <!-- Precicion-recall for Dr(eye)ve experiment -->
    <defs>
     <path d="M 4.890625 31.390625 
L 31.203125 31.390625 
L 31.203125 23.390625 
L 4.890625 23.390625 
z
" id="DejaVuSans-2d"/>
     <path id="DejaVuSans-20"/>
     <path d="M 37.109375 75.984375 
L 37.109375 68.5 
L 28.515625 68.5 
Q 23.6875 68.5 21.796875 66.546875 
Q 19.921875 64.59375 19.921875 59.515625 
L 19.921875 54.6875 
L 34.71875 54.6875 
L 34.71875 47.703125 
L 19.921875 47.703125 
L 19.921875 0 
L 10.890625 0 
L 10.890625 47.703125 
L 2.296875 47.703125 
L 2.296875 54.6875 
L 10.890625 54.6875 
L 10.890625 58.5 
Q 10.890625 67.625 15.140625 71.796875 
Q 19.390625 75.984375 28.609375 75.984375 
z
" id="DejaVuSans-66"/>
     <path d="M 19.671875 64.796875 
L 19.671875 8.109375 
L 31.59375 8.109375 
Q 46.6875 8.109375 53.6875 14.9375 
Q 60.6875 21.78125 60.6875 36.53125 
Q 60.6875 51.171875 53.6875 57.984375 
Q 46.6875 64.796875 31.59375 64.796875 
z
M 9.8125 72.90625 
L 30.078125 72.90625 
Q 51.265625 72.90625 61.171875 64.09375 
Q 71.09375 55.28125 71.09375 36.53125 
Q 71.09375 17.671875 61.125 8.828125 
Q 51.171875 0 30.078125 0 
L 9.8125 0 
z
" id="DejaVuSans-44"/>
     <path d="M 31 75.875 
Q 24.46875 64.65625 21.28125 53.65625 
Q 18.109375 42.671875 18.109375 31.390625 
Q 18.109375 20.125 21.3125 9.0625 
Q 24.515625 -2 31 -13.1875 
L 23.1875 -13.1875 
Q 15.875 -1.703125 12.234375 9.375 
Q 8.59375 20.453125 8.59375 31.390625 
Q 8.59375 42.28125 12.203125 53.3125 
Q 15.828125 64.359375 23.1875 75.875 
z
" id="DejaVuSans-28"/>
     <path d="M 32.171875 -5.078125 
Q 28.375 -14.84375 24.75 -17.8125 
Q 21.140625 -20.796875 15.09375 -20.796875 
L 7.90625 -20.796875 
L 7.90625 -13.28125 
L 13.1875 -13.28125 
Q 16.890625 -13.28125 18.9375 -11.515625 
Q 21 -9.765625 23.484375 -3.21875 
L 25.09375 0.875 
L 2.984375 54.6875 
L 12.5 54.6875 
L 29.59375 11.921875 
L 46.6875 54.6875 
L 56.203125 54.6875 
z
" id="DejaVuSans-79"/>
     <path d="M 8.015625 75.875 
L 15.828125 75.875 
Q 23.140625 64.359375 26.78125 53.3125 
Q 30.421875 42.28125 30.421875 31.390625 
Q 30.421875 20.453125 26.78125 9.375 
Q 23.140625 -1.703125 15.828125 -13.1875 
L 8.015625 -13.1875 
Q 14.5 -2 17.703125 9.0625 
Q 20.90625 20.125 20.90625 31.390625 
Q 20.90625 42.671875 17.703125 53.65625 
Q 14.5 64.65625 8.015625 75.875 
z
" id="DejaVuSans-29"/>
     <path d="M 2.984375 54.6875 
L 12.5 54.6875 
L 29.59375 8.796875 
L 46.6875 54.6875 
L 56.203125 54.6875 
L 35.6875 0 
L 23.484375 0 
z
" id="DejaVuSans-76"/>
     <path d="M 54.890625 54.6875 
L 35.109375 28.078125 
L 55.90625 0 
L 45.3125 0 
L 29.390625 21.484375 
L 13.484375 0 
L 2.875 0 
L 24.125 28.609375 
L 4.6875 54.6875 
L 15.28125 54.6875 
L 29.78125 35.203125 
L 44.28125 54.6875 
z
" id="DejaVuSans-78"/>
     <path d="M 18.109375 8.203125 
L 18.109375 -20.796875 
L 9.078125 -20.796875 
L 9.078125 54.6875 
L 18.109375 54.6875 
L 18.109375 46.390625 
Q 20.953125 51.265625 25.265625 53.625 
Q 29.59375 56 35.59375 56 
Q 45.5625 56 51.78125 48.09375 
Q 58.015625 40.1875 58.015625 27.296875 
Q 58.015625 14.40625 51.78125 6.484375 
Q 45.5625 -1.421875 35.59375 -1.421875 
Q 29.59375 -1.421875 25.265625 0.953125 
Q 20.953125 3.328125 18.109375 8.203125 
z
M 48.6875 27.296875 
Q 48.6875 37.203125 44.609375 42.84375 
Q 40.53125 48.484375 33.40625 48.484375 
Q 26.265625 48.484375 22.1875 42.84375 
Q 18.109375 37.203125 18.109375 27.296875 
Q 18.109375 17.390625 22.1875 11.75 
Q 26.265625 6.109375 33.40625 6.109375 
Q 40.53125 6.109375 44.609375 11.75 
Q 48.6875 17.390625 48.6875 27.296875 
z
" id="DejaVuSans-70"/>
     <path d="M 52 44.1875 
Q 55.375 50.25 60.0625 53.125 
Q 64.75 56 71.09375 56 
Q 79.640625 56 84.28125 50.015625 
Q 88.921875 44.046875 88.921875 33.015625 
L 88.921875 0 
L 79.890625 0 
L 79.890625 32.71875 
Q 79.890625 40.578125 77.09375 44.375 
Q 74.3125 48.1875 68.609375 48.1875 
Q 61.625 48.1875 57.5625 43.546875 
Q 53.515625 38.921875 53.515625 30.90625 
L 53.515625 0 
L 44.484375 0 
L 44.484375 32.71875 
Q 44.484375 40.625 41.703125 44.40625 
Q 38.921875 48.1875 33.109375 48.1875 
Q 26.21875 48.1875 22.15625 43.53125 
Q 18.109375 38.875 18.109375 30.90625 
L 18.109375 0 
L 9.078125 0 
L 9.078125 54.6875 
L 18.109375 54.6875 
L 18.109375 46.1875 
Q 21.1875 51.21875 25.484375 53.609375 
Q 29.78125 56 35.6875 56 
Q 41.65625 56 45.828125 52.96875 
Q 50 49.953125 52 44.1875 
z
" id="DejaVuSans-6d"/>
     <path d="M 18.3125 70.21875 
L 18.3125 54.6875 
L 36.8125 54.6875 
L 36.8125 47.703125 
L 18.3125 47.703125 
L 18.3125 18.015625 
Q 18.3125 11.328125 20.140625 9.421875 
Q 21.96875 7.515625 27.59375 7.515625 
L 36.8125 7.515625 
L 36.8125 0 
L 27.59375 0 
Q 17.1875 0 13.234375 3.875 
Q 9.28125 7.765625 9.28125 18.015625 
L 9.28125 47.703125 
L 2.6875 47.703125 
L 2.6875 54.6875 
L 9.28125 54.6875 
L 9.28125 70.21875 
z
" id="DejaVuSans-74"/>
    </defs>
    <g transform="translate(111.865313 35.472)scale(0.12 -0.12)">
     <use xlink:href="#DejaVuSans-50"/>
     <use x="60.287109" xlink:href="#DejaVuSans-72"/>
     <use x="101.369141" xlink:href="#DejaVuSans-65"/>
     <use x="162.892578" xlink:href="#DejaVuSans-63"/>
     <use x="217.873047" xlink:href="#DejaVuSans-69"/>
     <use x="245.65625" xlink:href="#DejaVuSans-63"/>
     <use x="300.636719" xlink:href="#DejaVuSans-69"/>
     <use x="328.419922" xlink:href="#DejaVuSans-6f"/>
     <use x="389.601562" xlink:href="#DejaVuSans-6e"/>
     <use x="452.980469" xlink:href="#DejaVuSans-2d"/>
     <use x="489.064453" xlink:href="#DejaVuSans-72"/>
     <use x="530.146484" xlink:href="#DejaVuSans-65"/>
     <use x="591.669922" xlink:href="#DejaVuSans-63"/>
     <use x="646.650391" xlink:href="#DejaVuSans-61"/>
     <use x="707.929688" xlink:href="#DejaVuSans-6c"/>
     <use x="735.712891" xlink:href="#DejaVuSans-6c"/>
     <use x="763.496094" xlink:href="#DejaVuSans-20"/>
     <use x="795.283203" xlink:href="#DejaVuSans-66"/>
     <use x="830.488281" xlink:href="#DejaVuSans-6f"/>
     <use x="891.669922" xlink:href="#DejaVuSans-72"/>
     <use x="932.783203" xlink:href="#DejaVuSans-20"/>
     <use x="964.570312" xlink:href="#DejaVuSans-44"/>
     <use x="1041.572266" xlink:href="#DejaVuSans-72"/>
     <use x="1082.685547" xlink:href="#DejaVuSans-28"/>
     <use x="1121.699219" xlink:href="#DejaVuSans-65"/>
     <use x="1183.222656" xlink:href="#DejaVuSans-79"/>
     <use x="1242.402344" xlink:href="#DejaVuSans-65"/>
     <use x="1303.925781" xlink:href="#DejaVuSans-29"/>
     <use x="1342.939453" xlink:href="#DejaVuSans-76"/>
     <use x="1402.119141" xlink:href="#DejaVuSans-65"/>
     <use x="1463.642578" xlink:href="#DejaVuSans-20"/>
     <use x="1495.429688" xlink:href="#DejaVuSans-65"/>
     <use x="1556.9375" xlink:href="#DejaVuSans-78"/>
     <use x="1616.117188" xlink:href="#DejaVuSans-70"/>
     <use x="1679.59375" xlink:href="#DejaVuSans-65"/>
     <use x="1741.117188" xlink:href="#DejaVuSans-72"/>
     <use x="1782.230469" xlink:href="#DejaVuSans-69"/>
     <use x="1810.013672" xlink:href="#DejaVuSans-6d"/>
     <use x="1907.425781" xlink:href="#DejaVuSans-65"/>
     <use x="1968.949219" xlink:href="#DejaVuSans-6e"/>
     <use x="2032.328125" xlink:href="#DejaVuSans-74"/>
    </g>
   </g>
   <g id="legend_1">
    <g id="patch_7">
     <path d="M 339.430938 93.506375 
L 407.72 93.506375 
Q 409.72 93.506375 409.72 91.506375 
L 409.72 48.472 
Q 409.72 46.472 407.72 46.472 
L 339.430938 46.472 
Q 337.430938 46.472 337.430938 48.472 
L 337.430938 91.506375 
Q 337.430938 93.506375 339.430938 93.506375 
z
" style="fill:#ffffff;opacity:0.8;stroke:#cccccc;stroke-linejoin:miter;"/>
    </g>
    <g id="line2d_16">
     <path d="M 341.430938 54.570438 
L 361.430938 54.570438 
" style="fill:none;stroke:#1f77b4;stroke-linecap:square;stroke-width:1.5;"/>
    </g>
    <g id="line2d_17"/>
    <g id="text_16">
     <!-- DSVDD -->
     <defs>
      <path d="M 53.515625 70.515625 
L 53.515625 60.890625 
Q 47.90625 63.578125 42.921875 64.890625 
Q 37.9375 66.21875 33.296875 66.21875 
Q 25.25 66.21875 20.875 63.09375 
Q 16.5 59.96875 16.5 54.203125 
Q 16.5 49.359375 19.40625 46.890625 
Q 22.3125 44.4375 30.421875 42.921875 
L 36.375 41.703125 
Q 47.40625 39.59375 52.65625 34.296875 
Q 57.90625 29 57.90625 20.125 
Q 57.90625 9.515625 50.796875 4.046875 
Q 43.703125 -1.421875 29.984375 -1.421875 
Q 24.8125 -1.421875 18.96875 -0.25 
Q 13.140625 0.921875 6.890625 3.21875 
L 6.890625 13.375 
Q 12.890625 10.015625 18.65625 8.296875 
Q 24.421875 6.59375 29.984375 6.59375 
Q 38.421875 6.59375 43.015625 9.90625 
Q 47.609375 13.234375 47.609375 19.390625 
Q 47.609375 24.75 44.3125 27.78125 
Q 41.015625 30.8125 33.5 32.328125 
L 27.484375 33.5 
Q 16.453125 35.6875 11.515625 40.375 
Q 6.59375 45.0625 6.59375 53.421875 
Q 6.59375 63.09375 13.40625 68.65625 
Q 20.21875 74.21875 32.171875 74.21875 
Q 37.3125 74.21875 42.625 73.28125 
Q 47.953125 72.359375 53.515625 70.515625 
z
" id="DejaVuSans-53"/>
      <path d="M 28.609375 0 
L 0.78125 72.90625 
L 11.078125 72.90625 
L 34.1875 11.53125 
L 57.328125 72.90625 
L 67.578125 72.90625 
L 39.796875 0 
z
" id="DejaVuSans-56"/>
     </defs>
     <g transform="translate(369.430938 58.070438)scale(0.1 -0.1)">
      <use xlink:href="#DejaVuSans-44"/>
      <use x="77.001953" xlink:href="#DejaVuSans-53"/>
      <use x="140.478516" xlink:href="#DejaVuSans-56"/>
      <use x="208.886719" xlink:href="#DejaVuSans-44"/>
      <use x="285.888672" xlink:href="#DejaVuSans-44"/>
     </g>
    </g>
    <g id="line2d_18">
     <path d="M 341.430938 69.248563 
L 361.430938 69.248563 
" style="fill:none;stroke:#ff7f0e;stroke-linecap:square;stroke-width:1.5;"/>
    </g>
    <g id="line2d_19"/>
    <g id="text_17">
     <!-- GPND -->
     <defs>
      <path d="M 59.515625 10.40625 
L 59.515625 29.984375 
L 43.40625 29.984375 
L 43.40625 38.09375 
L 69.28125 38.09375 
L 69.28125 6.78125 
Q 63.578125 2.734375 56.6875 0.65625 
Q 49.8125 -1.421875 42 -1.421875 
Q 24.90625 -1.421875 15.25 8.5625 
Q 5.609375 18.5625 5.609375 36.375 
Q 5.609375 54.25 15.25 64.234375 
Q 24.90625 74.21875 42 74.21875 
Q 49.125 74.21875 55.546875 72.453125 
Q 61.96875 70.703125 67.390625 67.28125 
L 67.390625 56.78125 
Q 61.921875 61.421875 55.765625 63.765625 
Q 49.609375 66.109375 42.828125 66.109375 
Q 29.4375 66.109375 22.71875 58.640625 
Q 16.015625 51.171875 16.015625 36.375 
Q 16.015625 21.625 22.71875 14.15625 
Q 29.4375 6.6875 42.828125 6.6875 
Q 48.046875 6.6875 52.140625 7.59375 
Q 56.25 8.5 59.515625 10.40625 
z
" id="DejaVuSans-47"/>
      <path d="M 9.8125 72.90625 
L 23.09375 72.90625 
L 55.421875 11.921875 
L 55.421875 72.90625 
L 64.984375 72.90625 
L 64.984375 0 
L 51.703125 0 
L 19.390625 60.984375 
L 19.390625 0 
L 9.8125 0 
z
" id="DejaVuSans-4e"/>
     </defs>
     <g transform="translate(369.430938 72.748563)scale(0.1 -0.1)">
      <use xlink:href="#DejaVuSans-47"/>
      <use x="77.490234" xlink:href="#DejaVuSans-50"/>
      <use x="137.792969" xlink:href="#DejaVuSans-4e"/>
      <use x="212.597656" xlink:href="#DejaVuSans-44"/>
     </g>
    </g>
    <g id="line2d_20">
     <path d="M 341.430938 83.926688 
L 361.430938 83.926688 
" style="fill:none;stroke:#2ca02c;stroke-linecap:square;stroke-width:1.5;"/>
    </g>
    <g id="line2d_21"/>
    <g id="text_18">
     <!-- ALOCC -->
     <defs>
      <path d="M 34.1875 63.1875 
L 20.796875 26.90625 
L 47.609375 26.90625 
z
M 28.609375 72.90625 
L 39.796875 72.90625 
L 67.578125 0 
L 57.328125 0 
L 50.6875 18.703125 
L 17.828125 18.703125 
L 11.1875 0 
L 0.78125 0 
z
" id="DejaVuSans-41"/>
      <path d="M 9.8125 72.90625 
L 19.671875 72.90625 
L 19.671875 8.296875 
L 55.171875 8.296875 
L 55.171875 0 
L 9.8125 0 
z
" id="DejaVuSans-4c"/>
      <path d="M 39.40625 66.21875 
Q 28.65625 66.21875 22.328125 58.203125 
Q 16.015625 50.203125 16.015625 36.375 
Q 16.015625 22.609375 22.328125 14.59375 
Q 28.65625 6.59375 39.40625 6.59375 
Q 50.140625 6.59375 56.421875 14.59375 
Q 62.703125 22.609375 62.703125 36.375 
Q 62.703125 50.203125 56.421875 58.203125 
Q 50.140625 66.21875 39.40625 66.21875 
z
M 39.40625 74.21875 
Q 54.734375 74.21875 63.90625 63.9375 
Q 73.09375 53.65625 73.09375 36.375 
Q 73.09375 19.140625 63.90625 8.859375 
Q 54.734375 -1.421875 39.40625 -1.421875 
Q 24.03125 -1.421875 14.8125 8.828125 
Q 5.609375 19.09375 5.609375 36.375 
Q 5.609375 53.65625 14.8125 63.9375 
Q 24.03125 74.21875 39.40625 74.21875 
z
" id="DejaVuSans-4f"/>
      <path d="M 64.40625 67.28125 
L 64.40625 56.890625 
Q 59.421875 61.53125 53.78125 63.8125 
Q 48.140625 66.109375 41.796875 66.109375 
Q 29.296875 66.109375 22.65625 58.46875 
Q 16.015625 50.828125 16.015625 36.375 
Q 16.015625 21.96875 22.65625 14.328125 
Q 29.296875 6.6875 41.796875 6.6875 
Q 48.140625 6.6875 53.78125 8.984375 
Q 59.421875 11.28125 64.40625 15.921875 
L 64.40625 5.609375 
Q 59.234375 2.09375 53.4375 0.328125 
Q 47.65625 -1.421875 41.21875 -1.421875 
Q 24.65625 -1.421875 15.125 8.703125 
Q 5.609375 18.84375 5.609375 36.375 
Q 5.609375 53.953125 15.125 64.078125 
Q 24.65625 74.21875 41.21875 74.21875 
Q 47.75 74.21875 53.53125 72.484375 
Q 59.328125 70.75 64.40625 67.28125 
z
" id="DejaVuSans-43"/>
     </defs>
     <g transform="translate(369.430938 87.426688)scale(0.1 -0.1)">
      <use xlink:href="#DejaVuSans-41"/>
      <use x="68.408203" xlink:href="#DejaVuSans-4c"/>
      <use x="124.074219" xlink:href="#DejaVuSans-4f"/>
      <use x="202.785156" xlink:href="#DejaVuSans-43"/>
      <use x="272.609375" xlink:href="#DejaVuSans-43"/>
     </g>
    </g>
   </g>
  </g>
 </g>
 <defs>
  <clipPath id="p336e6f1629">
   <rect height="266.112" width="357.12" x="57.6" y="41.472"/>
  </clipPath>
 </defs>
</svg>
