<?xml version="1.0" encoding="utf-8" standalone="no"?>
<!DOCTYPE svg PUBLIC "-//W3C//DTD SVG 1.1//EN"
  "http://www.w3.org/Graphics/SVG/1.1/DTD/svg11.dtd">
<!-- Created with matplotlib (http://matplotlib.org/) -->
<svg height="345.6pt" version="1.1" viewBox="0 0 460.8 345.6" width="460.8pt" xmlns="http://www.w3.org/2000/svg" xmlns:xlink="http://www.w3.org/1999/xlink">
 <defs>
  <style type="text/css">
*{stroke-linecap:butt;stroke-linejoin:round;}
  </style>
 </defs>
 <g id="figure_1">
  <g id="patch_1">
   <path d="M 0 345.6 
L 460.8 345.6 
L 460.8 0 
L 0 0 
z
" style="fill:#ffffff;"/>
  </g>
  <g id="axes_1">
   <g id="patch_2">
    <path d="M 57.6 307.584 
L 414.72 307.584 
L 414.72 41.472 
L 57.6 41.472 
z
" style="fill:#ffffff;"/>
   </g>
   <g id="matplotlib.axis_1">
    <g id="xtick_1">
     <g id="line2d_1">
      <defs>
       <path d="M 0 0 
L 0 3.5 
" id="m756d5b118d" style="stroke:#000000;stroke-width:0.8;"/>
      </defs>
      <g>
       <use style="stroke:#000000;stroke-width:0.8;" x="73.832727" xlink:href="#m756d5b118d" y="307.584"/>
      </g>
     </g>
     <g id="text_1">
      <!-- 0.0 -->
      <defs>
       <path d="M 31.78125 66.40625 
Q 24.171875 66.40625 20.328125 58.90625 
Q 16.5 51.421875 16.5 36.375 
Q 16.5 21.390625 20.328125 13.890625 
Q 24.171875 6.390625 31.78125 6.390625 
Q 39.453125 6.390625 43.28125 13.890625 
Q 47.125 21.390625 47.125 36.375 
Q 47.125 51.421875 43.28125 58.90625 
Q 39.453125 66.40625 31.78125 66.40625 
z
M 31.78125 74.21875 
Q 44.046875 74.21875 50.515625 64.515625 
Q 56.984375 54.828125 56.984375 36.375 
Q 56.984375 17.96875 50.515625 8.265625 
Q 44.046875 -1.421875 31.78125 -1.421875 
Q 19.53125 -1.421875 13.0625 8.265625 
Q 6.59375 17.96875 6.59375 36.375 
Q 6.59375 54.828125 13.0625 64.515625 
Q 19.53125 74.21875 31.78125 74.21875 
z
" id="DejaVuSans-30"/>
       <path d="M 10.6875 12.40625 
L 21 12.40625 
L 21 0 
L 10.6875 0 
z
" id="DejaVuSans-2e"/>
      </defs>
      <g transform="translate(65.881165 322.182437)scale(0.1 -0.1)">
       <use xlink:href="#DejaVuSans-30"/>
       <use x="63.623047" xlink:href="#DejaVuSans-2e"/>
       <use x="95.410156" xlink:href="#DejaVuSans-30"/>
      </g>
     </g>
    </g>
    <g id="xtick_2">
     <g id="line2d_2">
      <g>
       <use style="stroke:#000000;stroke-width:0.8;" x="138.763636" xlink:href="#m756d5b118d" y="307.584"/>
      </g>
     </g>
     <g id="text_2">
      <!-- 0.2 -->
      <defs>
       <path d="M 19.1875 8.296875 
L 53.609375 8.296875 
L 53.609375 0 
L 7.328125 0 
L 7.328125 8.296875 
Q 12.9375 14.109375 22.625 23.890625 
Q 32.328125 33.6875 34.8125 36.53125 
Q 39.546875 41.84375 41.421875 45.53125 
Q 43.3125 49.21875 43.3125 52.78125 
Q 43.3125 58.59375 39.234375 62.25 
Q 35.15625 65.921875 28.609375 65.921875 
Q 23.96875 65.921875 18.8125 64.3125 
Q 13.671875 62.703125 7.8125 59.421875 
L 7.8125 69.390625 
Q 13.765625 71.78125 18.9375 73 
Q 24.125 74.21875 28.421875 74.21875 
Q 39.75 74.21875 46.484375 68.546875 
Q 53.21875 62.890625 53.21875 53.421875 
Q 53.21875 48.921875 51.53125 44.890625 
Q 49.859375 40.875 45.40625 35.40625 
Q 44.1875 33.984375 37.640625 27.21875 
Q 31.109375 20.453125 19.1875 8.296875 
z
" id="DejaVuSans-32"/>
      </defs>
      <g transform="translate(130.812074 322.182437)scale(0.1 -0.1)">
       <use xlink:href="#DejaVuSans-30"/>
       <use x="63.623047" xlink:href="#DejaVuSans-2e"/>
       <use x="95.410156" xlink:href="#DejaVuSans-32"/>
      </g>
     </g>
    </g>
    <g id="xtick_3">
     <g id="line2d_3">
      <g>
       <use style="stroke:#000000;stroke-width:0.8;" x="203.694545" xlink:href="#m756d5b118d" y="307.584"/>
      </g>
     </g>
     <g id="text_3">
      <!-- 0.4 -->
      <defs>
       <path d="M 37.796875 64.3125 
L 12.890625 25.390625 
L 37.796875 25.390625 
z
M 35.203125 72.90625 
L 47.609375 72.90625 
L 47.609375 25.390625 
L 58.015625 25.390625 
L 58.015625 17.1875 
L 47.609375 17.1875 
L 47.609375 0 
L 37.796875 0 
L 37.796875 17.1875 
L 4.890625 17.1875 
L 4.890625 26.703125 
z
" id="DejaVuSans-34"/>
      </defs>
      <g transform="translate(195.742983 322.182437)scale(0.1 -0.1)">
       <use xlink:href="#DejaVuSans-30"/>
       <use x="63.623047" xlink:href="#DejaVuSans-2e"/>
       <use x="95.410156" xlink:href="#DejaVuSans-34"/>
      </g>
     </g>
    </g>
    <g id="xtick_4">
     <g id="line2d_4">
      <g>
       <use style="stroke:#000000;stroke-width:0.8;" x="268.625455" xlink:href="#m756d5b118d" y="307.584"/>
      </g>
     </g>
     <g id="text_4">
      <!-- 0.6 -->
      <defs>
       <path d="M 33.015625 40.375 
Q 26.375 40.375 22.484375 35.828125 
Q 18.609375 31.296875 18.609375 23.390625 
Q 18.609375 15.53125 22.484375 10.953125 
Q 26.375 6.390625 33.015625 6.390625 
Q 39.65625 6.390625 43.53125 10.953125 
Q 47.40625 15.53125 47.40625 23.390625 
Q 47.40625 31.296875 43.53125 35.828125 
Q 39.65625 40.375 33.015625 40.375 
z
M 52.59375 71.296875 
L 52.59375 62.3125 
Q 48.875 64.0625 45.09375 64.984375 
Q 41.3125 65.921875 37.59375 65.921875 
Q 27.828125 65.921875 22.671875 59.328125 
Q 17.53125 52.734375 16.796875 39.40625 
Q 19.671875 43.65625 24.015625 45.921875 
Q 28.375 48.1875 33.59375 48.1875 
Q 44.578125 48.1875 50.953125 41.515625 
Q 57.328125 34.859375 57.328125 23.390625 
Q 57.328125 12.15625 50.6875 5.359375 
Q 44.046875 -1.421875 33.015625 -1.421875 
Q 20.359375 -1.421875 13.671875 8.265625 
Q 6.984375 17.96875 6.984375 36.375 
Q 6.984375 53.65625 15.1875 63.9375 
Q 23.390625 74.21875 37.203125 74.21875 
Q 40.921875 74.21875 44.703125 73.484375 
Q 48.484375 72.75 52.59375 71.296875 
z
" id="DejaVuSans-36"/>
      </defs>
      <g transform="translate(260.673892 322.182437)scale(0.1 -0.1)">
       <use xlink:href="#DejaVuSans-30"/>
       <use x="63.623047" xlink:href="#DejaVuSans-2e"/>
       <use x="95.410156" xlink:href="#DejaVuSans-36"/>
      </g>
     </g>
    </g>
    <g id="xtick_5">
     <g id="line2d_5">
      <g>
       <use style="stroke:#000000;stroke-width:0.8;" x="333.556364" xlink:href="#m756d5b118d" y="307.584"/>
      </g>
     </g>
     <g id="text_5">
      <!-- 0.8 -->
      <defs>
       <path d="M 31.78125 34.625 
Q 24.75 34.625 20.71875 30.859375 
Q 16.703125 27.09375 16.703125 20.515625 
Q 16.703125 13.921875 20.71875 10.15625 
Q 24.75 6.390625 31.78125 6.390625 
Q 38.8125 6.390625 42.859375 10.171875 
Q 46.921875 13.96875 46.921875 20.515625 
Q 46.921875 27.09375 42.890625 30.859375 
Q 38.875 34.625 31.78125 34.625 
z
M 21.921875 38.8125 
Q 15.578125 40.375 12.03125 44.71875 
Q 8.5 49.078125 8.5 55.328125 
Q 8.5 64.0625 14.71875 69.140625 
Q 20.953125 74.21875 31.78125 74.21875 
Q 42.671875 74.21875 48.875 69.140625 
Q 55.078125 64.0625 55.078125 55.328125 
Q 55.078125 49.078125 51.53125 44.71875 
Q 48 40.375 41.703125 38.8125 
Q 48.828125 37.15625 52.796875 32.3125 
Q 56.78125 27.484375 56.78125 20.515625 
Q 56.78125 9.90625 50.3125 4.234375 
Q 43.84375 -1.421875 31.78125 -1.421875 
Q 19.734375 -1.421875 13.25 4.234375 
Q 6.78125 9.90625 6.78125 20.515625 
Q 6.78125 27.484375 10.78125 32.3125 
Q 14.796875 37.15625 21.921875 38.8125 
z
M 18.3125 54.390625 
Q 18.3125 48.734375 21.84375 45.5625 
Q 25.390625 42.390625 31.78125 42.390625 
Q 38.140625 42.390625 41.71875 45.5625 
Q 45.3125 48.734375 45.3125 54.390625 
Q 45.3125 60.0625 41.71875 63.234375 
Q 38.140625 66.40625 31.78125 66.40625 
Q 25.390625 66.40625 21.84375 63.234375 
Q 18.3125 60.0625 18.3125 54.390625 
z
" id="DejaVuSans-38"/>
      </defs>
      <g transform="translate(325.604801 322.182437)scale(0.1 -0.1)">
       <use xlink:href="#DejaVuSans-30"/>
       <use x="63.623047" xlink:href="#DejaVuSans-2e"/>
       <use x="95.410156" xlink:href="#DejaVuSans-38"/>
      </g>
     </g>
    </g>
    <g id="xtick_6">
     <g id="line2d_6">
      <g>
       <use style="stroke:#000000;stroke-width:0.8;" x="398.487273" xlink:href="#m756d5b118d" y="307.584"/>
      </g>
     </g>
     <g id="text_6">
      <!-- 1.0 -->
      <defs>
       <path d="M 12.40625 8.296875 
L 28.515625 8.296875 
L 28.515625 63.921875 
L 10.984375 60.40625 
L 10.984375 69.390625 
L 28.421875 72.90625 
L 38.28125 72.90625 
L 38.28125 8.296875 
L 54.390625 8.296875 
L 54.390625 0 
L 12.40625 0 
z
" id="DejaVuSans-31"/>
      </defs>
      <g transform="translate(390.53571 322.182437)scale(0.1 -0.1)">
       <use xlink:href="#DejaVuSans-31"/>
       <use x="63.623047" xlink:href="#DejaVuSans-2e"/>
       <use x="95.410156" xlink:href="#DejaVuSans-30"/>
      </g>
     </g>
    </g>
    <g id="text_7">
     <!-- false positive rate -->
     <defs>
      <path d="M 37.109375 75.984375 
L 37.109375 68.5 
L 28.515625 68.5 
Q 23.6875 68.5 21.796875 66.546875 
Q 19.921875 64.59375 19.921875 59.515625 
L 19.921875 54.6875 
L 34.71875 54.6875 
L 34.71875 47.703125 
L 19.921875 47.703125 
L 19.921875 0 
L 10.890625 0 
L 10.890625 47.703125 
L 2.296875 47.703125 
L 2.296875 54.6875 
L 10.890625 54.6875 
L 10.890625 58.5 
Q 10.890625 67.625 15.140625 71.796875 
Q 19.390625 75.984375 28.609375 75.984375 
z
" id="DejaVuSans-66"/>
      <path d="M 34.28125 27.484375 
Q 23.390625 27.484375 19.1875 25 
Q 14.984375 22.515625 14.984375 16.5 
Q 14.984375 11.71875 18.140625 8.90625 
Q 21.296875 6.109375 26.703125 6.109375 
Q 34.1875 6.109375 38.703125 11.40625 
Q 43.21875 16.703125 43.21875 25.484375 
L 43.21875 27.484375 
z
M 52.203125 31.203125 
L 52.203125 0 
L 43.21875 0 
L 43.21875 8.296875 
Q 40.140625 3.328125 35.546875 0.953125 
Q 30.953125 -1.421875 24.3125 -1.421875 
Q 15.921875 -1.421875 10.953125 3.296875 
Q 6 8.015625 6 15.921875 
Q 6 25.140625 12.171875 29.828125 
Q 18.359375 34.515625 30.609375 34.515625 
L 43.21875 34.515625 
L 43.21875 35.40625 
Q 43.21875 41.609375 39.140625 45 
Q 35.0625 48.390625 27.6875 48.390625 
Q 23 48.390625 18.546875 47.265625 
Q 14.109375 46.140625 10.015625 43.890625 
L 10.015625 52.203125 
Q 14.9375 54.109375 19.578125 55.046875 
Q 24.21875 56 28.609375 56 
Q 40.484375 56 46.34375 49.84375 
Q 52.203125 43.703125 52.203125 31.203125 
z
" id="DejaVuSans-61"/>
      <path d="M 9.421875 75.984375 
L 18.40625 75.984375 
L 18.40625 0 
L 9.421875 0 
z
" id="DejaVuSans-6c"/>
      <path d="M 44.28125 53.078125 
L 44.28125 44.578125 
Q 40.484375 46.53125 36.375 47.5 
Q 32.28125 48.484375 27.875 48.484375 
Q 21.1875 48.484375 17.84375 46.4375 
Q 14.5 44.390625 14.5 40.28125 
Q 14.5 37.15625 16.890625 35.375 
Q 19.28125 33.59375 26.515625 31.984375 
L 29.59375 31.296875 
Q 39.15625 29.25 43.1875 25.515625 
Q 47.21875 21.78125 47.21875 15.09375 
Q 47.21875 7.46875 41.1875 3.015625 
Q 35.15625 -1.421875 24.609375 -1.421875 
Q 20.21875 -1.421875 15.453125 -0.5625 
Q 10.6875 0.296875 5.421875 2 
L 5.421875 11.28125 
Q 10.40625 8.6875 15.234375 7.390625 
Q 20.0625 6.109375 24.8125 6.109375 
Q 31.15625 6.109375 34.5625 8.28125 
Q 37.984375 10.453125 37.984375 14.40625 
Q 37.984375 18.0625 35.515625 20.015625 
Q 33.0625 21.96875 24.703125 23.78125 
L 21.578125 24.515625 
Q 13.234375 26.265625 9.515625 29.90625 
Q 5.8125 33.546875 5.8125 39.890625 
Q 5.8125 47.609375 11.28125 51.796875 
Q 16.75 56 26.8125 56 
Q 31.78125 56 36.171875 55.265625 
Q 40.578125 54.546875 44.28125 53.078125 
z
" id="DejaVuSans-73"/>
      <path d="M 56.203125 29.59375 
L 56.203125 25.203125 
L 14.890625 25.203125 
Q 15.484375 15.921875 20.484375 11.0625 
Q 25.484375 6.203125 34.421875 6.203125 
Q 39.59375 6.203125 44.453125 7.46875 
Q 49.3125 8.734375 54.109375 11.28125 
L 54.109375 2.78125 
Q 49.265625 0.734375 44.1875 -0.34375 
Q 39.109375 -1.421875 33.890625 -1.421875 
Q 20.796875 -1.421875 13.15625 6.1875 
Q 5.515625 13.8125 5.515625 26.8125 
Q 5.515625 40.234375 12.765625 48.109375 
Q 20.015625 56 32.328125 56 
Q 43.359375 56 49.78125 48.890625 
Q 56.203125 41.796875 56.203125 29.59375 
z
M 47.21875 32.234375 
Q 47.125 39.59375 43.09375 43.984375 
Q 39.0625 48.390625 32.421875 48.390625 
Q 24.90625 48.390625 20.390625 44.140625 
Q 15.875 39.890625 15.1875 32.171875 
z
" id="DejaVuSans-65"/>
      <path id="DejaVuSans-20"/>
      <path d="M 18.109375 8.203125 
L 18.109375 -20.796875 
L 9.078125 -20.796875 
L 9.078125 54.6875 
L 18.109375 54.6875 
L 18.109375 46.390625 
Q 20.953125 51.265625 25.265625 53.625 
Q 29.59375 56 35.59375 56 
Q 45.5625 56 51.78125 48.09375 
Q 58.015625 40.1875 58.015625 27.296875 
Q 58.015625 14.40625 51.78125 6.484375 
Q 45.5625 -1.421875 35.59375 -1.421875 
Q 29.59375 -1.421875 25.265625 0.953125 
Q 20.953125 3.328125 18.109375 8.203125 
z
M 48.6875 27.296875 
Q 48.6875 37.203125 44.609375 42.84375 
Q 40.53125 48.484375 33.40625 48.484375 
Q 26.265625 48.484375 22.1875 42.84375 
Q 18.109375 37.203125 18.109375 27.296875 
Q 18.109375 17.390625 22.1875 11.75 
Q 26.265625 6.109375 33.40625 6.109375 
Q 40.53125 6.109375 44.609375 11.75 
Q 48.6875 17.390625 48.6875 27.296875 
z
" id="DejaVuSans-70"/>
      <path d="M 30.609375 48.390625 
Q 23.390625 48.390625 19.1875 42.75 
Q 14.984375 37.109375 14.984375 27.296875 
Q 14.984375 17.484375 19.15625 11.84375 
Q 23.34375 6.203125 30.609375 6.203125 
Q 37.796875 6.203125 41.984375 11.859375 
Q 46.1875 17.53125 46.1875 27.296875 
Q 46.1875 37.015625 41.984375 42.703125 
Q 37.796875 48.390625 30.609375 48.390625 
z
M 30.609375 56 
Q 42.328125 56 49.015625 48.375 
Q 55.71875 40.765625 55.71875 27.296875 
Q 55.71875 13.875 49.015625 6.21875 
Q 42.328125 -1.421875 30.609375 -1.421875 
Q 18.84375 -1.421875 12.171875 6.21875 
Q 5.515625 13.875 5.515625 27.296875 
Q 5.515625 40.765625 12.171875 48.375 
Q 18.84375 56 30.609375 56 
z
" id="DejaVuSans-6f"/>
      <path d="M 9.421875 54.6875 
L 18.40625 54.6875 
L 18.40625 0 
L 9.421875 0 
z
M 9.421875 75.984375 
L 18.40625 75.984375 
L 18.40625 64.59375 
L 9.421875 64.59375 
z
" id="DejaVuSans-69"/>
      <path d="M 18.3125 70.21875 
L 18.3125 54.6875 
L 36.8125 54.6875 
L 36.8125 47.703125 
L 18.3125 47.703125 
L 18.3125 18.015625 
Q 18.3125 11.328125 20.140625 9.421875 
Q 21.96875 7.515625 27.59375 7.515625 
L 36.8125 7.515625 
L 36.8125 0 
L 27.59375 0 
Q 17.1875 0 13.234375 3.875 
Q 9.28125 7.765625 9.28125 18.015625 
L 9.28125 47.703125 
L 2.6875 47.703125 
L 2.6875 54.6875 
L 9.28125 54.6875 
L 9.28125 70.21875 
z
" id="DejaVuSans-74"/>
      <path d="M 2.984375 54.6875 
L 12.5 54.6875 
L 29.59375 8.796875 
L 46.6875 54.6875 
L 56.203125 54.6875 
L 35.6875 0 
L 23.484375 0 
z
" id="DejaVuSans-76"/>
      <path d="M 41.109375 46.296875 
Q 39.59375 47.171875 37.8125 47.578125 
Q 36.03125 48 33.890625 48 
Q 26.265625 48 22.1875 43.046875 
Q 18.109375 38.09375 18.109375 28.8125 
L 18.109375 0 
L 9.078125 0 
L 9.078125 54.6875 
L 18.109375 54.6875 
L 18.109375 46.1875 
Q 20.953125 51.171875 25.484375 53.578125 
Q 30.03125 56 36.53125 56 
Q 37.453125 56 38.578125 55.875 
Q 39.703125 55.765625 41.0625 55.515625 
z
" id="DejaVuSans-72"/>
     </defs>
     <g transform="translate(191.318594 335.860562)scale(0.1 -0.1)">
      <use xlink:href="#DejaVuSans-66"/>
      <use x="35.205078" xlink:href="#DejaVuSans-61"/>
      <use x="96.484375" xlink:href="#DejaVuSans-6c"/>
      <use x="124.267578" xlink:href="#DejaVuSans-73"/>
      <use x="176.367188" xlink:href="#DejaVuSans-65"/>
      <use x="237.890625" xlink:href="#DejaVuSans-20"/>
      <use x="269.677734" xlink:href="#DejaVuSans-70"/>
      <use x="333.154297" xlink:href="#DejaVuSans-6f"/>
      <use x="394.335938" xlink:href="#DejaVuSans-73"/>
      <use x="446.435547" xlink:href="#DejaVuSans-69"/>
      <use x="474.21875" xlink:href="#DejaVuSans-74"/>
      <use x="513.427734" xlink:href="#DejaVuSans-69"/>
      <use x="541.210938" xlink:href="#DejaVuSans-76"/>
      <use x="600.390625" xlink:href="#DejaVuSans-65"/>
      <use x="661.914062" xlink:href="#DejaVuSans-20"/>
      <use x="693.701172" xlink:href="#DejaVuSans-72"/>
      <use x="734.814453" xlink:href="#DejaVuSans-61"/>
      <use x="796.09375" xlink:href="#DejaVuSans-74"/>
      <use x="835.302734" xlink:href="#DejaVuSans-65"/>
     </g>
    </g>
   </g>
   <g id="matplotlib.axis_2">
    <g id="ytick_1">
     <g id="line2d_7">
      <defs>
       <path d="M 0 0 
L -3.5 0 
" id="m92e0bd4615" style="stroke:#000000;stroke-width:0.8;"/>
      </defs>
      <g>
       <use style="stroke:#000000;stroke-width:0.8;" x="57.6" xlink:href="#m92e0bd4615" y="295.97871"/>
      </g>
     </g>
     <g id="text_8">
      <!-- 0.0 -->
      <g transform="translate(34.696875 299.777929)scale(0.1 -0.1)">
       <use xlink:href="#DejaVuSans-30"/>
       <use x="63.623047" xlink:href="#DejaVuSans-2e"/>
       <use x="95.410156" xlink:href="#DejaVuSans-30"/>
      </g>
     </g>
    </g>
    <g id="ytick_2">
     <g id="line2d_8">
      <g>
       <use style="stroke:#000000;stroke-width:0.8;" x="57.6" xlink:href="#m92e0bd4615" y="247.496568"/>
      </g>
     </g>
     <g id="text_9">
      <!-- 0.2 -->
      <g transform="translate(34.696875 251.295787)scale(0.1 -0.1)">
       <use xlink:href="#DejaVuSans-30"/>
       <use x="63.623047" xlink:href="#DejaVuSans-2e"/>
       <use x="95.410156" xlink:href="#DejaVuSans-32"/>
      </g>
     </g>
    </g>
    <g id="ytick_3">
     <g id="line2d_9">
      <g>
       <use style="stroke:#000000;stroke-width:0.8;" x="57.6" xlink:href="#m92e0bd4615" y="199.014426"/>
      </g>
     </g>
     <g id="text_10">
      <!-- 0.4 -->
      <g transform="translate(34.696875 202.813645)scale(0.1 -0.1)">
       <use xlink:href="#DejaVuSans-30"/>
       <use x="63.623047" xlink:href="#DejaVuSans-2e"/>
       <use x="95.410156" xlink:href="#DejaVuSans-34"/>
      </g>
     </g>
    </g>
    <g id="ytick_4">
     <g id="line2d_10">
      <g>
       <use style="stroke:#000000;stroke-width:0.8;" x="57.6" xlink:href="#m92e0bd4615" y="150.532284"/>
      </g>
     </g>
     <g id="text_11">
      <!-- 0.6 -->
      <g transform="translate(34.696875 154.331503)scale(0.1 -0.1)">
       <use xlink:href="#DejaVuSans-30"/>
       <use x="63.623047" xlink:href="#DejaVuSans-2e"/>
       <use x="95.410156" xlink:href="#DejaVuSans-36"/>
      </g>
     </g>
    </g>
    <g id="ytick_5">
     <g id="line2d_11">
      <g>
       <use style="stroke:#000000;stroke-width:0.8;" x="57.6" xlink:href="#m92e0bd4615" y="102.050142"/>
      </g>
     </g>
     <g id="text_12">
      <!-- 0.8 -->
      <g transform="translate(34.696875 105.849361)scale(0.1 -0.1)">
       <use xlink:href="#DejaVuSans-30"/>
       <use x="63.623047" xlink:href="#DejaVuSans-2e"/>
       <use x="95.410156" xlink:href="#DejaVuSans-38"/>
      </g>
     </g>
    </g>
    <g id="ytick_6">
     <g id="line2d_12">
      <g>
       <use style="stroke:#000000;stroke-width:0.8;" x="57.6" xlink:href="#m92e0bd4615" y="53.568"/>
      </g>
     </g>
     <g id="text_13">
      <!-- 1.0 -->
      <g transform="translate(34.696875 57.367219)scale(0.1 -0.1)">
       <use xlink:href="#DejaVuSans-31"/>
       <use x="63.623047" xlink:href="#DejaVuSans-2e"/>
       <use x="95.410156" xlink:href="#DejaVuSans-30"/>
      </g>
     </g>
    </g>
    <g id="text_14">
     <!-- true positive rate -->
     <defs>
      <path d="M 8.5 21.578125 
L 8.5 54.6875 
L 17.484375 54.6875 
L 17.484375 21.921875 
Q 17.484375 14.15625 20.5 10.265625 
Q 23.53125 6.390625 29.59375 6.390625 
Q 36.859375 6.390625 41.078125 11.03125 
Q 45.3125 15.671875 45.3125 23.6875 
L 45.3125 54.6875 
L 54.296875 54.6875 
L 54.296875 0 
L 45.3125 0 
L 45.3125 8.40625 
Q 42.046875 3.421875 37.71875 1 
Q 33.40625 -1.421875 27.6875 -1.421875 
Q 18.265625 -1.421875 13.375 4.4375 
Q 8.5 10.296875 8.5 21.578125 
z
M 31.109375 56 
z
" id="DejaVuSans-75"/>
     </defs>
     <g transform="translate(28.617187 217.735813)rotate(-90)scale(0.1 -0.1)">
      <use xlink:href="#DejaVuSans-74"/>
      <use x="39.208984" xlink:href="#DejaVuSans-72"/>
      <use x="80.322266" xlink:href="#DejaVuSans-75"/>
      <use x="143.701172" xlink:href="#DejaVuSans-65"/>
      <use x="205.224609" xlink:href="#DejaVuSans-20"/>
      <use x="237.011719" xlink:href="#DejaVuSans-70"/>
      <use x="300.488281" xlink:href="#DejaVuSans-6f"/>
      <use x="361.669922" xlink:href="#DejaVuSans-73"/>
      <use x="413.769531" xlink:href="#DejaVuSans-69"/>
      <use x="441.552734" xlink:href="#DejaVuSans-74"/>
      <use x="480.761719" xlink:href="#DejaVuSans-69"/>
      <use x="508.544922" xlink:href="#DejaVuSans-76"/>
      <use x="567.724609" xlink:href="#DejaVuSans-65"/>
      <use x="629.248047" xlink:href="#DejaVuSans-20"/>
      <use x="661.035156" xlink:href="#DejaVuSans-72"/>
      <use x="702.148438" xlink:href="#DejaVuSans-61"/>
      <use x="763.427734" xlink:href="#DejaVuSans-74"/>
      <use x="802.636719" xlink:href="#DejaVuSans-65"/>
     </g>
    </g>
   </g>
   <g id="line2d_13">
    <path clip-path="url(#pcfa1e0b2c1)" d="M 73.832727 295.488 
L 73.832727 243.472746 
L 74.489923 243.472746 
L 74.489923 238.565647 
L 75.147118 238.565647 
L 75.147118 237.093517 
L 75.804314 237.093517 
L 75.804314 225.316479 
L 76.461509 225.316479 
L 76.461509 206.669501 
L 77.7759 206.669501 
L 77.7759 204.215951 
L 78.433095 204.215951 
L 78.433095 199.308852 
L 79.090291 199.308852 
L 79.090291 189.985363 
L 79.747486 189.985363 
L 79.747486 189.003943 
L 80.404682 189.003943 
L 80.404682 188.022523 
L 81.061877 188.022523 
L 81.061877 187.041103 
L 81.719073 187.041103 
L 81.719073 184.587554 
L 82.376268 184.587554 
L 82.376268 180.661874 
L 83.033463 180.661874 
L 83.033463 162.014897 
L 83.690659 162.014897 
L 83.690659 158.579927 
L 85.00505 158.579927 
L 85.00505 158.089217 
L 85.662245 158.089217 
L 85.662245 157.598507 
L 86.319441 157.598507 
L 86.319441 156.617087 
L 86.976636 156.617087 
L 86.976636 153.182118 
L 87.633831 153.182118 
L 87.633831 149.256438 
L 88.291027 149.256438 
L 88.291027 148.765728 
L 88.948222 148.765728 
L 88.948222 138.951529 
L 89.605418 138.951529 
L 89.605418 136.98869 
L 90.262613 136.98869 
L 90.262613 134.53514 
L 90.919809 134.53514 
L 90.919809 133.55372 
L 92.234199 133.55372 
L 92.234199 132.5723 
L 93.54859 132.5723 
L 93.54859 131.59088 
L 94.205786 131.59088 
L 94.205786 128.155911 
L 94.862981 128.155911 
L 94.862981 124.230231 
L 95.520177 124.230231 
L 95.520177 121.776682 
L 96.177372 121.776682 
L 96.177372 121.285972 
L 97.491763 121.285972 
L 97.491763 120.304552 
L 98.806154 120.304552 
L 98.806154 119.813842 
L 99.463349 119.813842 
L 99.463349 118.832422 
L 100.120545 118.832422 
L 100.120545 117.360292 
L 100.77774 117.360292 
L 100.77774 112.943903 
L 101.434936 112.943903 
L 101.434936 111.962483 
L 102.092131 111.962483 
L 102.092131 109.999643 
L 103.406522 109.999643 
L 103.406522 109.508933 
L 104.063717 109.508933 
L 104.063717 108.527513 
L 104.720913 108.527513 
L 104.720913 107.055383 
L 106.035304 107.055383 
L 106.035304 106.073963 
L 106.692499 106.073963 
L 106.692499 105.092544 
L 107.349695 105.092544 
L 107.349695 104.601834 
L 108.00689 104.601834 
L 108.00689 103.620414 
L 109.321281 103.620414 
L 109.321281 102.638994 
L 110.635672 102.638994 
L 110.635672 100.676154 
L 111.950063 100.676154 
L 111.950063 99.694734 
L 112.607258 99.694734 
L 112.607258 99.204024 
L 113.264453 99.204024 
L 113.264453 98.222604 
L 113.921649 98.222604 
L 113.921649 95.769055 
L 115.23604 95.769055 
L 115.23604 95.278345 
L 116.550431 95.278345 
L 116.550431 93.806215 
L 117.864821 93.806215 
L 117.864821 93.315505 
L 119.836408 93.315505 
L 119.836408 91.352665 
L 120.493603 91.352665 
L 120.493603 90.371245 
L 121.150799 90.371245 
L 121.150799 89.880535 
L 122.46519 89.880535 
L 122.46519 89.389826 
L 125.751167 89.389826 
L 125.751167 88.408406 
L 128.379948 88.408406 
L 128.379948 87.917696 
L 130.351535 87.917696 
L 130.351535 85.954856 
L 131.665926 85.954856 
L 131.665926 83.992016 
L 134.294707 83.992016 
L 134.294707 83.501306 
L 134.951903 83.501306 
L 134.951903 83.010596 
L 136.266294 83.010596 
L 136.266294 82.029176 
L 138.895075 82.029176 
L 138.895075 79.084917 
L 140.209466 79.084917 
L 140.209466 78.594207 
L 141.523857 78.594207 
L 141.523857 78.103497 
L 142.181053 78.103497 
L 142.181053 77.122077 
L 149.410202 77.122077 
L 149.410202 76.631367 
L 150.724593 76.631367 
L 150.724593 74.668527 
L 152.69618 74.668527 
L 152.69618 73.196398 
L 154.01057 73.196398 
L 154.01057 72.705688 
L 156.639352 72.705688 
L 156.639352 72.214978 
L 157.296548 72.214978 
L 157.296548 71.724268 
L 158.610939 71.724268 
L 158.610939 71.233558 
L 162.554111 71.233558 
L 162.554111 70.742848 
L 165.182893 70.742848 
L 165.182893 70.252138 
L 167.811675 70.252138 
L 167.811675 69.270718 
L 169.783261 69.270718 
L 169.783261 68.780008 
L 172.412043 68.780008 
L 172.412043 68.289298 
L 173.069238 68.289298 
L 173.069238 67.798588 
L 185.555951 67.798588 
L 185.555951 67.307878 
L 190.813515 67.307878 
L 190.813515 66.817168 
L 197.385469 66.817168 
L 197.385469 66.326458 
L 199.357056 66.326458 
L 199.357056 65.345039 
L 200.014251 65.345039 
L 200.014251 64.854329 
L 207.900596 64.854329 
L 207.900596 64.363619 
L 216.444137 64.363619 
L 216.444137 63.872909 
L 224.987678 63.872909 
L 224.987678 63.382199 
L 226.959264 63.382199 
L 226.959264 62.891489 
L 230.902437 62.891489 
L 230.902437 62.400779 
L 239.445977 62.400779 
L 239.445977 61.910069 
L 240.760368 61.910069 
L 240.760368 61.419359 
L 249.303909 61.419359 
L 249.303909 60.928649 
L 253.904277 60.928649 
L 253.904277 60.437939 
L 254.561472 60.437939 
L 254.561472 59.947229 
L 259.16184 59.947229 
L 259.16184 59.456519 
L 261.133427 59.456519 
L 261.133427 58.965809 
L 261.790622 58.965809 
L 261.790622 58.475099 
L 263.762208 58.475099 
L 263.762208 57.984389 
L 266.39099 57.984389 
L 266.39099 57.49368 
L 274.277335 57.49368 
L 274.277335 57.00297 
L 276.248922 57.00297 
L 276.248922 56.51226 
L 280.84929 56.51226 
L 280.84929 56.02155 
L 287.421244 56.02155 
L 287.421244 55.53084 
L 292.678808 55.53084 
L 292.678808 55.04013 
L 299.250762 55.04013 
L 299.250762 54.54942 
L 315.680648 54.54942 
L 315.680648 54.05871 
L 351.169201 54.05871 
L 351.169201 53.568 
L 398.487273 53.568 
L 398.487273 53.568 
" style="fill:none;stroke:#1f77b4;stroke-linecap:square;stroke-width:1.5;"/>
   </g>
   <g id="line2d_14">
    <path clip-path="url(#pcfa1e0b2c1)" d="M 73.832727 295.056996 
L 73.832727 185.373063 
L 75.067155 185.373063 
L 75.067155 165.095361 
L 76.301583 165.095361 
L 76.301583 159.565078 
L 77.536011 159.565078 
L 77.536011 151.269655 
L 78.770439 151.269655 
L 78.770439 149.426228 
L 80.004867 149.426228 
L 80.004867 143.895945 
L 81.239295 143.895945 
L 81.239295 142.052518 
L 82.473723 142.052518 
L 82.473723 130.070239 
L 83.708151 130.070239 
L 83.708151 124.539957 
L 84.942579 124.539957 
L 84.942579 123.618243 
L 86.177007 123.618243 
L 86.177007 118.087961 
L 87.411434 118.087961 
L 87.411434 116.244533 
L 88.645862 116.244533 
L 88.645862 115.32282 
L 91.114718 115.32282 
L 91.114718 111.635965 
L 96.05243 111.635965 
L 96.05243 106.105682 
L 98.521286 106.105682 
L 98.521286 105.183969 
L 100.990142 105.183969 
L 100.990142 104.262255 
L 102.22457 104.262255 
L 102.22457 101.497114 
L 103.458998 101.497114 
L 103.458998 100.5754 
L 104.693426 100.5754 
L 104.693426 94.123404 
L 105.927853 94.123404 
L 105.927853 92.279976 
L 108.396709 92.279976 
L 108.396709 89.514835 
L 109.631137 89.514835 
L 109.631137 88.593122 
L 112.099993 88.593122 
L 112.099993 87.671408 
L 113.334421 87.671408 
L 113.334421 83.062839 
L 114.568849 83.062839 
L 114.568849 80.297698 
L 117.037705 80.297698 
L 117.037705 79.375984 
L 118.272133 79.375984 
L 118.272133 76.610843 
L 121.975417 76.610843 
L 121.975417 75.689129 
L 123.209844 75.689129 
L 123.209844 73.845702 
L 124.444272 73.845702 
L 124.444272 71.080561 
L 126.913128 71.080561 
L 126.913128 70.158847 
L 133.085268 70.158847 
L 133.085268 69.237133 
L 134.319696 69.237133 
L 134.319696 68.31542 
L 138.02298 68.31542 
L 138.02298 66.471992 
L 140.491835 66.471992 
L 140.491835 64.628565 
L 152.836115 64.628565 
L 152.836115 63.706851 
L 173.82139 63.706851 
L 173.82139 62.785137 
L 179.993529 62.785137 
L 179.993529 61.863424 
L 210.854227 61.863424 
L 210.854227 60.94171 
L 220.729651 60.94171 
L 220.729651 60.019996 
L 221.964079 60.019996 
L 221.964079 59.098282 
L 228.136218 59.098282 
L 228.136218 58.176569 
L 231.839502 58.176569 
L 231.839502 57.254855 
L 257.762489 57.254855 
L 257.762489 56.333141 
L 276.278908 56.333141 
L 276.278908 55.411427 
L 287.388759 55.411427 
L 287.388759 54.489714 
L 326.890453 54.489714 
L 326.890453 53.568 
L 398.487273 53.568 
" style="fill:none;stroke:#ff7f0e;stroke-linecap:square;stroke-width:1.5;"/>
   </g>
   <g id="line2d_15">
    <path clip-path="url(#pcfa1e0b2c1)" d="M 73.832727 295.145683 
L 73.832727 233.501723 
L 74.948379 233.501723 
L 74.948379 225.171458 
L 76.06403 225.171458 
L 76.06403 200.180663 
L 77.179681 200.180663 
L 77.179681 196.015531 
L 79.410984 196.015531 
L 79.410984 181.85408 
L 80.526635 181.85408 
L 80.526635 174.356842 
L 82.757938 174.356842 
L 82.757938 173.523815 
L 83.87359 173.523815 
L 83.87359 157.696312 
L 84.989241 157.696312 
L 84.989241 156.863285 
L 86.104892 156.863285 
L 86.104892 153.531179 
L 89.451846 153.531179 
L 89.451846 151.865126 
L 90.567498 151.865126 
L 90.567498 141.035782 
L 91.683149 141.035782 
L 91.683149 131.039464 
L 92.7988 131.039464 
L 92.7988 126.874332 
L 93.914452 126.874332 
L 93.914452 123.542226 
L 95.030103 123.542226 
L 95.030103 121.876173 
L 96.145754 121.876173 
L 96.145754 121.043146 
L 98.377057 121.043146 
L 98.377057 117.71104 
L 101.724011 117.71104 
L 101.724011 113.545908 
L 102.839663 113.545908 
L 102.839663 111.879855 
L 103.955314 111.879855 
L 103.955314 110.213802 
L 108.417919 110.213802 
L 108.417919 109.380775 
L 109.533571 109.380775 
L 109.533571 106.048669 
L 112.880525 106.048669 
L 112.880525 105.215643 
L 113.996176 105.215643 
L 113.996176 104.382616 
L 115.111828 104.382616 
L 115.111828 103.54959 
L 116.227479 103.54959 
L 116.227479 98.551431 
L 117.34313 98.551431 
L 117.34313 96.052351 
L 118.458782 96.052351 
L 118.458782 94.386298 
L 122.921387 94.386298 
L 122.921387 93.553272 
L 124.037038 93.553272 
L 124.037038 91.887219 
L 127.383993 91.887219 
L 127.383993 88.555113 
L 129.615295 88.555113 
L 129.615295 87.722086 
L 131.846598 87.722086 
L 131.846598 86.056033 
L 134.077901 86.056033 
L 134.077901 85.223007 
L 136.309203 85.223007 
L 136.309203 84.38998 
L 137.424855 84.38998 
L 137.424855 83.556954 
L 139.656157 83.556954 
L 139.656157 81.890901 
L 140.771809 81.890901 
L 140.771809 81.057874 
L 143.003112 81.057874 
L 143.003112 80.224848 
L 145.234414 80.224848 
L 145.234414 79.391821 
L 147.465717 79.391821 
L 147.465717 78.558795 
L 151.928322 78.558795 
L 151.928322 77.725768 
L 153.043974 77.725768 
L 153.043974 76.059715 
L 157.506579 76.059715 
L 157.506579 74.393662 
L 160.853533 74.393662 
L 160.853533 72.727609 
L 163.084836 72.727609 
L 163.084836 69.395503 
L 168.663093 69.395503 
L 168.663093 68.562477 
L 170.894396 68.562477 
L 170.894396 66.063397 
L 176.472652 66.063397 
L 176.472652 64.397344 
L 178.703955 64.397344 
L 178.703955 61.898265 
L 183.16656 61.898265 
L 183.16656 61.065238 
L 186.513515 61.065238 
L 186.513515 60.232212 
L 195.438725 60.232212 
L 195.438725 59.399185 
L 209.942193 59.399185 
L 209.942193 58.566159 
L 216.636101 58.566159 
L 216.636101 57.733132 
L 240.06478 57.733132 
L 240.06478 56.900106 
L 296.962999 56.900106 
L 296.962999 56.067079 
L 318.160375 56.067079 
L 318.160375 55.234053 
L 350.514264 55.234053 
L 350.514264 54.401026 
L 375.058594 54.401026 
L 375.058594 53.568 
L 398.487273 53.568 
" style="fill:none;stroke:#2ca02c;stroke-linecap:square;stroke-width:1.5;"/>
   </g>
   <g id="patch_3">
    <path d="M 57.6 307.584 
L 57.6 41.472 
" style="fill:none;stroke:#000000;stroke-linecap:square;stroke-linejoin:miter;stroke-width:0.8;"/>
   </g>
   <g id="patch_4">
    <path d="M 414.72 307.584 
L 414.72 41.472 
" style="fill:none;stroke:#000000;stroke-linecap:square;stroke-linejoin:miter;stroke-width:0.8;"/>
   </g>
   <g id="patch_5">
    <path d="M 57.6 307.584 
L 414.72 307.584 
" style="fill:none;stroke:#000000;stroke-linecap:square;stroke-linejoin:miter;stroke-width:0.8;"/>
   </g>
   <g id="patch_6">
    <path d="M 57.6 41.472 
L 414.72 41.472 
" style="fill:none;stroke:#000000;stroke-linecap:square;stroke-linejoin:miter;stroke-width:0.8;"/>
   </g>
   <g id="legend_1">
    <g id="patch_7">
     <path d="M 339.430938 93.506375 
L 407.72 93.506375 
Q 409.72 93.506375 409.72 91.506375 
L 409.72 48.472 
Q 409.72 46.472 407.72 46.472 
L 339.430938 46.472 
Q 337.430938 46.472 337.430938 48.472 
L 337.430938 91.506375 
Q 337.430938 93.506375 339.430938 93.506375 
z
" style="fill:#ffffff;opacity:0.8;stroke:#cccccc;stroke-linejoin:miter;"/>
    </g>
    <g id="line2d_16">
     <path d="M 341.430938 54.570438 
L 361.430938 54.570438 
" style="fill:none;stroke:#1f77b4;stroke-linecap:square;stroke-width:1.5;"/>
    </g>
    <g id="line2d_17"/>
    <g id="text_15">
     <!-- DSVDD -->
     <defs>
      <path d="M 19.671875 64.796875 
L 19.671875 8.109375 
L 31.59375 8.109375 
Q 46.6875 8.109375 53.6875 14.9375 
Q 60.6875 21.78125 60.6875 36.53125 
Q 60.6875 51.171875 53.6875 57.984375 
Q 46.6875 64.796875 31.59375 64.796875 
z
M 9.8125 72.90625 
L 30.078125 72.90625 
Q 51.265625 72.90625 61.171875 64.09375 
Q 71.09375 55.28125 71.09375 36.53125 
Q 71.09375 17.671875 61.125 8.828125 
Q 51.171875 0 30.078125 0 
L 9.8125 0 
z
" id="DejaVuSans-44"/>
      <path d="M 53.515625 70.515625 
L 53.515625 60.890625 
Q 47.90625 63.578125 42.921875 64.890625 
Q 37.9375 66.21875 33.296875 66.21875 
Q 25.25 66.21875 20.875 63.09375 
Q 16.5 59.96875 16.5 54.203125 
Q 16.5 49.359375 19.40625 46.890625 
Q 22.3125 44.4375 30.421875 42.921875 
L 36.375 41.703125 
Q 47.40625 39.59375 52.65625 34.296875 
Q 57.90625 29 57.90625 20.125 
Q 57.90625 9.515625 50.796875 4.046875 
Q 43.703125 -1.421875 29.984375 -1.421875 
Q 24.8125 -1.421875 18.96875 -0.25 
Q 13.140625 0.921875 6.890625 3.21875 
L 6.890625 13.375 
Q 12.890625 10.015625 18.65625 8.296875 
Q 24.421875 6.59375 29.984375 6.59375 
Q 38.421875 6.59375 43.015625 9.90625 
Q 47.609375 13.234375 47.609375 19.390625 
Q 47.609375 24.75 44.3125 27.78125 
Q 41.015625 30.8125 33.5 32.328125 
L 27.484375 33.5 
Q 16.453125 35.6875 11.515625 40.375 
Q 6.59375 45.0625 6.59375 53.421875 
Q 6.59375 63.09375 13.40625 68.65625 
Q 20.21875 74.21875 32.171875 74.21875 
Q 37.3125 74.21875 42.625 73.28125 
Q 47.953125 72.359375 53.515625 70.515625 
z
" id="DejaVuSans-53"/>
      <path d="M 28.609375 0 
L 0.78125 72.90625 
L 11.078125 72.90625 
L 34.1875 11.53125 
L 57.328125 72.90625 
L 67.578125 72.90625 
L 39.796875 0 
z
" id="DejaVuSans-56"/>
     </defs>
     <g transform="translate(369.430938 58.070438)scale(0.1 -0.1)">
      <use xlink:href="#DejaVuSans-44"/>
      <use x="77.001953" xlink:href="#DejaVuSans-53"/>
      <use x="140.478516" xlink:href="#DejaVuSans-56"/>
      <use x="208.886719" xlink:href="#DejaVuSans-44"/>
      <use x="285.888672" xlink:href="#DejaVuSans-44"/>
     </g>
    </g>
    <g id="line2d_18">
     <path d="M 341.430938 69.248563 
L 361.430938 69.248563 
" style="fill:none;stroke:#ff7f0e;stroke-linecap:square;stroke-width:1.5;"/>
    </g>
    <g id="line2d_19"/>
    <g id="text_16">
     <!-- GPND -->
     <defs>
      <path d="M 59.515625 10.40625 
L 59.515625 29.984375 
L 43.40625 29.984375 
L 43.40625 38.09375 
L 69.28125 38.09375 
L 69.28125 6.78125 
Q 63.578125 2.734375 56.6875 0.65625 
Q 49.8125 -1.421875 42 -1.421875 
Q 24.90625 -1.421875 15.25 8.5625 
Q 5.609375 18.5625 5.609375 36.375 
Q 5.609375 54.25 15.25 64.234375 
Q 24.90625 74.21875 42 74.21875 
Q 49.125 74.21875 55.546875 72.453125 
Q 61.96875 70.703125 67.390625 67.28125 
L 67.390625 56.78125 
Q 61.921875 61.421875 55.765625 63.765625 
Q 49.609375 66.109375 42.828125 66.109375 
Q 29.4375 66.109375 22.71875 58.640625 
Q 16.015625 51.171875 16.015625 36.375 
Q 16.015625 21.625 22.71875 14.15625 
Q 29.4375 6.6875 42.828125 6.6875 
Q 48.046875 6.6875 52.140625 7.59375 
Q 56.25 8.5 59.515625 10.40625 
z
" id="DejaVuSans-47"/>
      <path d="M 19.671875 64.796875 
L 19.671875 37.40625 
L 32.078125 37.40625 
Q 38.96875 37.40625 42.71875 40.96875 
Q 46.484375 44.53125 46.484375 51.125 
Q 46.484375 57.671875 42.71875 61.234375 
Q 38.96875 64.796875 32.078125 64.796875 
z
M 9.8125 72.90625 
L 32.078125 72.90625 
Q 44.34375 72.90625 50.609375 67.359375 
Q 56.890625 61.8125 56.890625 51.125 
Q 56.890625 40.328125 50.609375 34.8125 
Q 44.34375 29.296875 32.078125 29.296875 
L 19.671875 29.296875 
L 19.671875 0 
L 9.8125 0 
z
" id="DejaVuSans-50"/>
      <path d="M 9.8125 72.90625 
L 23.09375 72.90625 
L 55.421875 11.921875 
L 55.421875 72.90625 
L 64.984375 72.90625 
L 64.984375 0 
L 51.703125 0 
L 19.390625 60.984375 
L 19.390625 0 
L 9.8125 0 
z
" id="DejaVuSans-4e"/>
     </defs>
     <g transform="translate(369.430938 72.748563)scale(0.1 -0.1)">
      <use xlink:href="#DejaVuSans-47"/>
      <use x="77.490234" xlink:href="#DejaVuSans-50"/>
      <use x="137.792969" xlink:href="#DejaVuSans-4e"/>
      <use x="212.597656" xlink:href="#DejaVuSans-44"/>
     </g>
    </g>
    <g id="line2d_20">
     <path d="M 341.430938 83.926688 
L 361.430938 83.926688 
" style="fill:none;stroke:#2ca02c;stroke-linecap:square;stroke-width:1.5;"/>
    </g>
    <g id="line2d_21"/>
    <g id="text_17">
     <!-- ALOCC -->
     <defs>
      <path d="M 34.1875 63.1875 
L 20.796875 26.90625 
L 47.609375 26.90625 
z
M 28.609375 72.90625 
L 39.796875 72.90625 
L 67.578125 0 
L 57.328125 0 
L 50.6875 18.703125 
L 17.828125 18.703125 
L 11.1875 0 
L 0.78125 0 
z
" id="DejaVuSans-41"/>
      <path d="M 9.8125 72.90625 
L 19.671875 72.90625 
L 19.671875 8.296875 
L 55.171875 8.296875 
L 55.171875 0 
L 9.8125 0 
z
" id="DejaVuSans-4c"/>
      <path d="M 39.40625 66.21875 
Q 28.65625 66.21875 22.328125 58.203125 
Q 16.015625 50.203125 16.015625 36.375 
Q 16.015625 22.609375 22.328125 14.59375 
Q 28.65625 6.59375 39.40625 6.59375 
Q 50.140625 6.59375 56.421875 14.59375 
Q 62.703125 22.609375 62.703125 36.375 
Q 62.703125 50.203125 56.421875 58.203125 
Q 50.140625 66.21875 39.40625 66.21875 
z
M 39.40625 74.21875 
Q 54.734375 74.21875 63.90625 63.9375 
Q 73.09375 53.65625 73.09375 36.375 
Q 73.09375 19.140625 63.90625 8.859375 
Q 54.734375 -1.421875 39.40625 -1.421875 
Q 24.03125 -1.421875 14.8125 8.828125 
Q 5.609375 19.09375 5.609375 36.375 
Q 5.609375 53.65625 14.8125 63.9375 
Q 24.03125 74.21875 39.40625 74.21875 
z
" id="DejaVuSans-4f"/>
      <path d="M 64.40625 67.28125 
L 64.40625 56.890625 
Q 59.421875 61.53125 53.78125 63.8125 
Q 48.140625 66.109375 41.796875 66.109375 
Q 29.296875 66.109375 22.65625 58.46875 
Q 16.015625 50.828125 16.015625 36.375 
Q 16.015625 21.96875 22.65625 14.328125 
Q 29.296875 6.6875 41.796875 6.6875 
Q 48.140625 6.6875 53.78125 8.984375 
Q 59.421875 11.28125 64.40625 15.921875 
L 64.40625 5.609375 
Q 59.234375 2.09375 53.4375 0.328125 
Q 47.65625 -1.421875 41.21875 -1.421875 
Q 24.65625 -1.421875 15.125 8.703125 
Q 5.609375 18.84375 5.609375 36.375 
Q 5.609375 53.953125 15.125 64.078125 
Q 24.65625 74.21875 41.21875 74.21875 
Q 47.75 74.21875 53.53125 72.484375 
Q 59.328125 70.75 64.40625 67.28125 
z
" id="DejaVuSans-43"/>
     </defs>
     <g transform="translate(369.430938 87.426688)scale(0.1 -0.1)">
      <use xlink:href="#DejaVuSans-41"/>
      <use x="68.408203" xlink:href="#DejaVuSans-4c"/>
      <use x="124.074219" xlink:href="#DejaVuSans-4f"/>
      <use x="202.785156" xlink:href="#DejaVuSans-43"/>
      <use x="272.609375" xlink:href="#DejaVuSans-43"/>
     </g>
    </g>
   </g>
  </g>
 </g>
 <defs>
  <clipPath id="pcfa1e0b2c1">
   <rect height="266.112" width="357.12" x="57.6" y="41.472"/>
  </clipPath>
 </defs>
</svg>
